<?xml version="1.0" encoding="UTF-8" standalone="no"?>
<svg
   version="1.0"
   width="457.30081pt"
   height="365.14963pt"
   viewBox="0 0 457.30081 365.14963"
   preserveAspectRatio="xMidYMid"
   id="svg4858"
   sodipodi:docname="blond-wig.svg"
   inkscape:version="1.2 (dc2aedaf03, 2022-05-15)"
   xmlns:inkscape="http://www.inkscape.org/namespaces/inkscape"
   xmlns:sodipodi="http://sodipodi.sourceforge.net/DTD/sodipodi-0.dtd"
   xmlns="http://www.w3.org/2000/svg"
   xmlns:svg="http://www.w3.org/2000/svg">
  <defs
     id="defs4862" />
  <sodipodi:namedview
     id="namedview4860"
     pagecolor="#ffffff"
     bordercolor="#000000"
     borderopacity="0.25"
     inkscape:showpageshadow="2"
     inkscape:pageopacity="0.0"
     inkscape:pagecheckerboard="0"
     inkscape:deskcolor="#d1d1d1"
     inkscape:document-units="pt"
     showgrid="false"
     inkscape:zoom="0.90950226"
     inkscape:cx="241.3408"
     inkscape:cy="224.84826"
     inkscape:window-width="1920"
     inkscape:window-height="991"
     inkscape:window-x="-9"
     inkscape:window-y="-9"
     inkscape:window-maximized="1"
     inkscape:current-layer="g4856" />
  <g
     transform="matrix(0.1,0,0,-0.1,-100.5,569.83371)"
     fill="#000000"
     stroke="none"
     id="g4856"
     inkscape:label="g4856">
    <path
       style="fill:#ffd42a;stroke-width:7.5"
       d="m 1583.2836,2185.2612 c -80.9318,206.9848 -151.1843,423.581 -16.4926,824.6269 l 709.1792,-98.9553 1261.6791,420.5597 577.2388,667.9478 98.9552,255.6343 c 614.1295,-585.2455 889.1915,-1286.7427 733.9179,-2135.7836 l 395.8209,305.112 90.7089,1377.1269 -725.6716,1294.6641 -1327.6492,527.7612 -1096.7538,-346.3433 -733.9179,-643.2089 -371.0821,-1121.4926 -49.4776,-667.9477 173.1716,-428.806 z"
       id="path5677"
       sodipodi:nodetypes="ccccccccccccccccc" />
    <path
       id="path4852"
       d="m 3286.2451,5698.2568 c -57.2499,-0.75 -115.2501,-6.7519 -191.25,-18.2519 -323.9997,-49 -578.9905,-136.9982 -849.9902,-292.9981 -273.9997,-157.9998 -446.9992,-304.0061 -648.999,-546.0058 -262.9998,-315.9997 -432.0001,-709.9966 -510,-1185.9961 -83,-504.9995 -80.0059,-483.01 -81.0059,-665.0098 0,-161.9998 2.0039,-182.9903 29.0039,-279.9902 49.7354,-180.7949 237.6168,-453.2048 432.3926,-663.1641 h 348.6914 c -91.1591,68.497 -190.0957,142.2218 -241.084,190.166 -148.9998,138.9999 -276.004,352.9895 -329.0039,553.9893 -34,130.9999 -6.9931,454.0083 77.0068,898.0078 92.9999,494.9995 344.9984,956.0032 682.9981,1248.0029 439.9995,380.9997 1019.9995,576.9931 1503.999,507.9932 438.9996,-62.9999 859.9974,-277.9974 1166.9971,-596.9971 305.9997,-317.9997 494.9932,-706.0083 597.9931,-1228.0078 106.9999,-542.9994 106.0117,-766.9895 -2.9882,-1018.9892 -52,-118.9999 -77.0109,-162.0001 -151.0108,-255 -101.2025,-126.9179 -215.3662,-221.0177 -342.4512,-299.1651 h 369.0528 c 168.1564,164.6246 301.4975,359.943 371.3965,573.1641 80.9999,245.9997 80.0116,423.9907 -2.9883,894.9902 -84.9999,480.9995 -150.007,697.0052 -287.0069,955.0049 -355.9996,669.9993 -1000.0007,1116.0001 -1755,1215 -72.9999,9.5 -129.5029,14.0068 -186.7529,13.2568 z M 4180.752,4363.5059 c -24,0 -47.2579,-6.5118 -61.7579,-19.5118 -11.9999,-9.9999 -46.999,-71 -78.999,-135 -109.9999,-221.9997 -198.9933,-356.9923 -357.9931,-541.9921 -247.9998,-289.9998 -576.0025,-473.0002 -1042.002,-585 -274.9997,-66 -444.9966,-72.0059 -945.9961,-36.0059 -97.9999,8 -119.001,-1.003 -146.001,-63.0029 -43.9999,-99.9999 9.9982,-164.9981 157.9981,-187.9981 l -5.8887,-4.248 323.8916,-14.751 c 55,-9 331.0011,9 476.001,30 360.9996,51.9999 624.9954,145.0021 919.9951,322.0019 308.9997,184.9999 586.0002,502.0054 810,925.0049 86.9999,163.9999 91.0068,235.9913 17.0068,290.9912 -17.4999,13 -42.2549,19.5118 -66.2548,19.5118 z" />
    <path
       d="m 2973,4591 c -11,-10 -44,-45 -72,-79 -252,-302 -579,-573 -855,-706 -113,-54 -272,-111 -350,-125 -88,-16 -128,-39 -145,-83 -28,-76 16,-159 93,-174 107,-20 445,110 695,268 259,163 466,343 713,621 101,114 119,154 97,214 -28,71 -125,107 -176,64 z"
       id="path4854" />
  </g>
</svg>
