<?xml version="1.0" encoding="UTF-8" standalone="no"?>
<svg
   version="1.0"
   width="373.27124pt"
   height="679.39581pt"
   viewBox="0 0 373.27124 679.39581"
   preserveAspectRatio="xMidYMid"
   id="svg32"
   sodipodi:docname="door-key.svg"
   inkscape:version="1.2 (dc2aedaf03, 2022-05-15)"
   xmlns:inkscape="http://www.inkscape.org/namespaces/inkscape"
   xmlns:sodipodi="http://sodipodi.sourceforge.net/DTD/sodipodi-0.dtd"
   xmlns="http://www.w3.org/2000/svg"
   xmlns:svg="http://www.w3.org/2000/svg">
  <defs
     id="defs36" />
  <sodipodi:namedview
     id="namedview34"
     pagecolor="#ffffff"
     bordercolor="#000000"
     borderopacity="0.25"
     inkscape:showpageshadow="2"
     inkscape:pageopacity="0.0"
     inkscape:pagecheckerboard="0"
     inkscape:deskcolor="#d1d1d1"
     inkscape:document-units="pt"
     showgrid="false"
     inkscape:zoom="0.39480129"
     inkscape:cx="51.924856"
     inkscape:cy="847.26168"
     inkscape:window-width="1920"
     inkscape:window-height="991"
     inkscape:window-x="-9"
     inkscape:window-y="-9"
     inkscape:window-maximized="1"
     inkscape:current-layer="g30" />
  <g
     transform="matrix(0.1,0,0,-0.1,0,1080)"
     fill="#000000"
     stroke="none"
     id="g30">
    <g
       id="g1536"
       transform="translate(-3598.9786,2091.6226)">
      <rect
         style="fill:#ffff00;stroke-width:8.02387"
         id="rect1526"
         width="902.35266"
         height="2925.5222"
         x="5100.6675"
         y="-5309.896"
         transform="scale(1,-1)" />
      <rect
         style="fill:#ffff00;stroke-width:7.5"
         id="rect1528"
         width="1329.7828"
         height="1472.2596"
         x="5898.5371"
         y="-4265.0669"
         transform="scale(1,-1)" />
      <rect
         style="fill:#ffff00;stroke-width:7.5"
         id="rect1530"
         width="693.38684"
         height="940.3465"
         x="5414.1162"
         y="-3049.2654"
         transform="scale(1,-1)" />
      <ellipse
         style="fill:#ffff00;stroke-width:11.2636"
         id="path1524"
         cx="5452.1099"
         cy="-6915.1343"
         transform="scale(1,-1)"
         rx="1690.724"
         ry="1776.2101" />
    </g>
    <path
       d="m 1584.0214,10785.622 c -363,-52 -743.00005,-252 -1026.00005,-538 -184,-186 -323,-398.9994 -429,-655.9994 -96,-231 -129.9999995,-408 -128.9999995,-671 0,-292 42.9999995,-484 159.9999995,-724 131,-267 309,-476 571,-671 160,-118 271.00005,-176 494.00005,-255 60,-21 110,-40 112,-41 1,-2 4,-626 6,-1388 3,-1291 4,-1387 20,-1417 23,-41 74,-59 123,-43 22.8428,7.6143 37.8345,0.5329 47.6896,38.5044 6.5523,25.246 10.8339,70.4076 13.6427,153.045 6.2823,184.8345 5.1959,557.153 5.6677,1313.4506 v 1446 l -26,38 c -30,43 -52,54 -216,110 -63,21 -135,47 -160,57 -79,32 -272.00005,144 -349.00005,202 -230,175 -415,433 -509,707 -104,303 -92,744 27,1043 203,506.9999 543,835.9994 1041.00005,1006.9994 186,63 304,79 545,72 321,-10 506,-62 780,-220 130,-74 365,-282 450,-396.9994 57,-76 166,-270 200,-353 65,-160 115,-422 115,-597 0,-246 -83,-557 -202,-752 -76,-125 -154,-224 -268,-338 -143,-144 -291,-242 -496,-328 -105,-45 -159,-86 -172,-131 -4,-14 -7,-258 -7,-541 v -515 l 24,-38 c 13,-21 35,-43 48,-48 13,-5 151,-9 306,-9 155,0 407,-3 559,-7 l 277,-6 -2,-626 -2,-626 -538,-5 -538,-5 -19,-25 c -28,-37 -32,-93 -28,-441 l 3,-316 -134,-7 c -74,-3 -172,-6 -218,-6 h -83 v 1381 c 0,1536 5,1433 -66,1467 -28,13 -40,13 -74,3 -82,-24 -75,117 -75,-1532 v -980.6418 -100.7463 -67.1641 -319.4478 l 21,-28 c 39,-53 47,-54 346,-43 276,10 388,25 435,56 14,8 33,34 44,57 17,38 19,70 19,367 v 325 l 512,-3 c 475,-2 516,-1 548,15 65,33 63,0 61,822 l -2,746 -22,45 c -38,78 -11,75 -640,78 l -557,2 v 407 c 1,408 3,433 36,433 29,0 305,156 394,223 292,220 526,540 638,872 52,154 69,238 83,420 25,311 -28,612 -156,880 -53,110 -152,270.9994 -214,344.9994 -77,93 -237,245 -341,324 -253,191 -565,322 -859,361 -138,18 -382,18 -508,-1 z"
       id="path20" />
    <path
       d="m 1784.0214,10046.622 c -60,-26 -64,-130.9994 -7,-187.9994 28,-29 35,-31 200,-52 256,-32 410,-141 524,-369 81,-161 118,-350 106,-546 -7,-137 -27,-214 -82,-329 -38,-78 -60,-109 -132,-181 -99,-99 -171,-143 -307,-188 -178,-59 -279,-64 -485,-23 -187,37 -386,154 -494,290 -73,91 -99,140 -136.00005,256 -30,95 -32,106 -28,225 4,109 9,137 37.00003,220 49.00002,140 102.00002,244 184.00002,356 87,118 158,184 289,270 103,67 128,98 128,158 0,25.9999 -7,39.9999 -27,55.9994 -55,44 -171,13 -289,-76.9994 -242,-183 -396.00005,-404 -488.00005,-701 -116,-371 -36,-699 238.00005,-975 173,-174 357,-264 641,-314 287,-50 651,60 861,259 282,268 374,657 268,1123 -24,102 -130,316 -198,395 -165,194 -317,275.9999 -602,324.9994 -168,29 -159,28 -201,10 z"
       id="path22" />
    <path
       d="m 2516.0214,6100.6226 c -75,-18 -122,-96 -94,-154 30,-60 42,-63 314,-75 138,-6 274,-13 303,-16 l 53,-6 -3,-106 -3,-107 -210,1 c -127,1 -227,6 -252,13 -77,21 -152,-15 -168,-81 -9,-37 28,-114 65,-133 21,-11 96,-14 363,-16 321,-3 337,-2 358,17 55,50 71,147 60,379 -9,189 -18,215 -83,238 -26,10 -97,18 -178,22 -131,5 -378,21 -450,29 -19,2 -53,0 -75,-5 z"
       id="path24" />
    <path
       d="m 2499.0214,5351.6226 c -31,-24 -53,-89 -43,-129 4,-14 16,-36 27,-48 21,-22 28,-23 187,-23 178,0 238,9 258,36 17,24 16,88 -1,123 -25,47 -56,55 -236,59 -157,3 -167,2 -192,-18 z"
       id="path26" />
    <path
       d="m 3006.0214,5359.6226 c -46,-25 -53,-50 -34,-137 9,-45 14,-51 45,-61 47,-16 119,-4 144,23 23,23 28,104 9,139 -21,40 -118,61 -164,36 z"
       id="path28" />
  </g>
</svg>
