<?xml version="1.0" standalone="no"?>
<!DOCTYPE svg PUBLIC "-//W3C//DTD SVG 20010904//EN"
 "http://www.w3.org/TR/2001/REC-SVG-20010904/DTD/svg10.dtd">
<svg version="1.0" xmlns="http://www.w3.org/2000/svg"
 width="1024.000000pt" height="1024.000000pt" viewBox="0 0 1024.000000 1024.000000"
 preserveAspectRatio="xMidYMid meet">

<g transform="translate(0.000000,1024.000000) scale(0.100000,-0.100000)"
fill="#000000" stroke="none">
<path d="M5210 8593 c-124 -176 -311 -359 -480 -471 -322 -214 -631 -307
-1060 -319 -139 -4 -216 -1 -310 12 -69 9 -150 19 -180 22 l-55 5 1 -1118 c2
-1213 3 -1245 60 -1584 98 -587 344 -1097 744 -1543 203 -226 420 -426 594
-546 125 -86 398 -252 551 -336 39 -21 89 -51 113 -67 l43 -29 102 54 c528
282 697 389 967 613 275 229 510 505 692 813 186 315 283 563 364 925 70 311
66 227 71 1580 2 676 0 1232 -4 1236 -4 4 -71 -2 -148 -12 -200 -28 -578 -30
-730 -5 -240 40 -381 85 -585 187 -246 124 -455 295 -615 504 -33 43 -69 89
-80 103 l-20 25 -35 -49z m76 -346 c40 -48 225 -201 339 -279 253 -174 602
-311 903 -354 129 -19 433 -24 595 -11 l97 8 0 -1024 c0 -1191 -3 -1243 -82
-1592 -78 -347 -173 -575 -371 -890 -139 -220 -388 -499 -597 -670 -137 -111
-453 -321 -580 -384 -51 -26 -270 -145 -314 -171 -28 -17 -29 -17 -130 40 -55
31 -148 83 -206 115 -229 127 -491 322 -704 525 -178 169 -403 465 -544 715
-150 267 -239 526 -301 875 -38 213 -41 310 -41 1390 l0 1055 262 0 c291 0
391 11 598 65 235 62 520 199 706 339 102 76 317 276 323 299 3 13 5 13 14 -4
5 -10 20 -31 33 -47z"/>
<path d="M5200 8114 c-125 -129 -387 -312 -589 -413 -226 -113 -409 -176 -620
-211 -113 -19 -157 -22 -293 -18 l-160 5 6 -36 c3 -20 6 -41 6 -47 0 -8 44
-14 135 -19 289 -16 597 61 950 235 191 94 325 180 498 319 128 103 128 103
150 85 12 -11 24 -22 27 -25 22 -24 203 -167 257 -202 132 -85 159 -101 323
-182 331 -165 538 -219 892 -233 l166 -7 6 38 c4 21 4 42 1 48 -4 5 -60 9
-125 9 -227 0 -468 50 -725 151 -159 63 -237 101 -380 187 -155 93 -203 130
-330 254 -64 61 -121 108 -132 108 -10 0 -39 -21 -63 -46z"/>
<path d="M6843 7270 c-43 -19 -53 -34 -53 -82 0 -38 48 -88 85 -88 48 0 83 27
95 72 10 36 9 44 -7 67 -11 14 -33 31 -49 37 -25 11 -37 10 -71 -6z"/>
<path d="M3545 7248 c-22 -26 -26 -39 -21 -66 15 -97 124 -111 160 -20 21 52
20 65 -9 93 -37 38 -95 35 -130 -7z"/>
<path d="M3476 5773 c-19 -314 49 -752 166 -1073 165 -448 430 -814 833 -1150
94 -78 232 -170 238 -158 1 2 12 17 24 35 l23 32 -68 42 c-205 128 -475 388
-628 604 -245 345 -361 609 -438 1000 -49 249 -56 318 -56 562 l0 213 -44 0
-43 0 -7 -107z"/>
<path d="M6975 5597 c-1 -248 -4 -297 -24 -407 -36 -203 -71 -326 -155 -542
-49 -128 -177 -365 -261 -483 -164 -231 -493 -541 -697 -657 -32 -18 -74 -42
-93 -53 l-34 -20 16 -32 c8 -18 21 -33 28 -33 25 0 195 91 272 146 301 216
556 506 733 833 137 253 207 448 265 736 50 250 57 336 49 583 l-7 212 -46 0
-46 0 0 -283z"/>
<path d="M27 103 c-25 -4 -27 -8 -27 -54 0 -48 1 -49 30 -49 30 0 30 1 30 55
0 30 -1 54 -2 54 -2 -1 -15 -4 -31 -6z"/>
</g>
</svg>
