<?xml version="1.0" encoding="UTF-8" standalone="no"?>
<!-- Created with Inkscape (http://www.inkscape.org/) -->

<svg
   width="191mm"
   height="263mm"
   viewBox="0 0 191 263"
   version="1.1"
   id="svg5"
   xml:space="preserve"
   inkscape:version="1.2 (dc2aedaf03, 2022-05-15)"
   sodipodi:docname="sid-logo.svg"
   xmlns:inkscape="http://www.inkscape.org/namespaces/inkscape"
   xmlns:sodipodi="http://sodipodi.sourceforge.net/DTD/sodipodi-0.dtd"
   xmlns="http://www.w3.org/2000/svg"
   xmlns:svg="http://www.w3.org/2000/svg"><sodipodi:namedview
     id="namedview7"
     pagecolor="#ffffff"
     bordercolor="#000000"
     borderopacity="0.25"
     inkscape:showpageshadow="2"
     inkscape:pageopacity="0.0"
     inkscape:pagecheckerboard="0"
     inkscape:deskcolor="#d1d1d1"
     inkscape:document-units="mm"
     showgrid="false"
     inkscape:zoom="0.3581229"
     inkscape:cx="346.24985"
     inkscape:cy="710.6499"
     inkscape:window-width="1920"
     inkscape:window-height="991"
     inkscape:window-x="-9"
     inkscape:window-y="-9"
     inkscape:window-maximized="1"
     inkscape:current-layer="layer1" /><defs
     id="defs2" /><g
     inkscape:label="Calque 1"
     inkscape:groupmode="layer"
     id="layer1"
     transform="translate(-24.380597,28.315852)"><g
       transform="matrix(0.02083185,0,0,-0.02083185,13.604664,207.67756)"
       fill="#000000"
       stroke="none"
       id="g79"
       inkscape:label="dog"><path
         d="m 2438,8454 c -80,-19 -126,-45 -179,-101 -88,-92 -122,-184 -122,-328 1,-67 14,-157 51,-350 28,-143 72,-368 97,-500 25,-132 59,-298 75,-369 17,-72 30,-141 30,-155 0,-13 -27,-72 -59,-130 -273,-486 -364,-964 -286,-1504 16,-105 16,-120 2,-135 -23,-26 -65,-125 -87,-205 -28,-96 -37,-304 -21,-462 15,-142 71,-429 105,-536 95,-294 239,-564 443,-831 158,-206 469,-483 694,-619 45,-27 86,-53 93,-58 28,-22 229,-125 343,-176 254,-113 491,-178 698,-192 100,-6 175,6 241,39 41,20 43,20 155,4 183,-27 414,-37 594,-26 88,6 166,13 172,15 7,2 55,-4 105,-15 117,-25 223,-25 363,-1 245,43 481,122 720,243 327,165 527,309 786,567 368,368 594,759 709,1224 65,268 74,336 74,572 -1,241 -16,324 -80,427 -19,32 -33,62 -30,67 3,5 15,79 26,165 44,341 14,669 -91,992 -49,151 -150,367 -242,518 -28,45 -34,63 -27,77 6,10 22,80 36,156 14,76 43,233 65,348 84,448 133,800 127,909 -10,188 -139,342 -316,377 -142,27 -273,-13 -732,-224 -50,-23 -268,-117 -384,-167 -141,-59 -316,-148 -316,-160 0,-7 -6,-7 -18,-1 -48,26 -455,125 -637,155 -252,42 -759,54 -970,23 -191,-28 -405,-75 -553,-122 l -143,-46 -72,34 c -40,19 -106,48 -147,65 -41,17 -122,51 -180,75 -603,256 -809,339 -896,362 -70,18 -139,18 -216,-1 z m 238,-258 c 121,-41 491,-196 876,-367 86,-38 161,-69 165,-69 5,0 38,-17 74,-39 111,-64 119,-65 218,-31 142,48 348,99 538,132 158,27 207,31 432,35 439,9 755,-37 1159,-168 l 122,-40 103,55 c 56,30 158,79 227,109 128,56 383,171 545,247 143,66 332,140 389,152 79,17 135,-2 190,-63 84,-94 84,-92 46,-339 -37,-243 -64,-400 -143,-815 -81,-424 -83,-364 13,-535 121,-217 164,-314 219,-495 62,-202 91,-396 91,-601 0,-467 -140,-863 -419,-1189 -184,-214 -445,-438 -631,-542 -30,-16 -102,-56 -159,-88 -292,-162 -840,-342 -1194,-392 -157,-22 -669,-25 -827,-4 -254,32 -580,111 -802,192 -628,231 -1076,558 -1357,989 -175,268 -260,533 -292,910 -30,361 65,780 257,1130 31,58 74,137 95,175 l 37,70 -18,75 c -18,70 -58,253 -130,590 -17,80 -41,204 -55,275 -13,72 -40,206 -59,299 l -34,168 29,58 c 34,66 59,92 115,120 52,26 96,25 180,-4 z M 2234,4454 c 88,-176 163,-292 279,-429 104,-123 283,-297 400,-388 225,-175 576,-362 897,-478 161,-57 311,-123 371,-161 94,-60 259,-250 395,-454 91,-136 117,-205 111,-290 -7,-101 -65,-175 -171,-219 -46,-19 -172,-19 -271,0 -181,34 -463,145 -572,224 -37,27 -122,145 -205,284 -30,51 -67,74 -130,83 -35,5 -48,2 -70,-16 -37,-28 -36,-63 2,-124 35,-54 37,-55 -88,31 -185,128 -415,345 -541,511 -239,315 -367,612 -441,1024 -16,91 -34,219 -40,284 -10,111 -12,279 -4,271 2,-2 37,-71 78,-153 z m 5786,-40 c -10,-136 -54,-393 -95,-554 -72,-281 -228,-591 -414,-825 -180,-226 -371,-410 -558,-536 -104,-70 -110,-71 -76,-11 34,62 27,97 -29,127 -34,18 -40,19 -80,5 -35,-13 -52,-29 -102,-100 -90,-129 -256,-289 -344,-334 -105,-53 -161,-73 -291,-107 -268,-68 -497,-61 -592,19 -147,123 -111,292 106,502 31,30 65,71 75,90 28,53 102,123 204,191 50,34 103,75 118,91 15,15 37,28 49,28 26,0 229,68 451,151 237,88 490,219 717,371 255,171 503,416 668,663 72,106 166,282 184,343 7,23 14,41 16,39 2,-2 -2,-71 -7,-153 z M 4730,2929 c 133,-14 698,-15 778,-1 28,5 52,6 52,2 0,-4 -46,-48 -102,-99 -171,-152 -243,-247 -301,-394 -58,-144 -58,-278 -2,-361 l 24,-36 h -67 c -73,0 -242,26 -255,40 -5,4 -4,18 3,30 21,39 30,141 20,236 -18,175 -81,314 -232,515 -40,53 -61,88 -50,85 9,-3 69,-10 132,-17 z"
         id="path59" /><path
         d="m 7233,7705 c -24,-17 -107,-132 -192,-265 -79,-124 -109,-180 -116,-222 -7,-38 -7,-38 26,-38 46,-1 65,-13 171,-111 126,-117 210,-189 230,-200 18,-10 -128,178 -185,238 l -30,32 46,88 c 44,86 118,252 156,354 23,59 17,85 -25,118 -32,25 -52,26 -81,6 z"
         id="path61" /><path
         d="m 2842,7687 c -31,-33 -28,-59 24,-177 25,-58 66,-154 90,-215 25,-60 56,-120 69,-132 l 24,-21 -22,-15 c -25,-16 -178,-196 -211,-248 l -21,-34 30,22 c 17,11 79,67 139,123 136,127 200,171 261,177 25,3 45,7 45,10 0,28 -260,452 -313,511 -28,31 -86,30 -115,-1 z"
         id="path63" /><path
         d="m 3815,6133 c -22,-9 -59,-31 -82,-50 -62,-50 -84,-116 -91,-273 -10,-274 57,-416 214,-451 44,-10 66,-10 102,-1 53,14 116,55 145,93 35,47 58,155 64,296 10,225 -23,315 -138,372 -72,36 -147,41 -214,14 z m 146,-103 c 57,-31 65,-147 14,-200 -53,-55 -118,-47 -162,19 -29,43 -29,89 0,132 32,47 105,72 148,49 z"
         id="path65" /><path
         d="m 6148,6126 c -132,-49 -169,-143 -148,-376 14,-152 23,-197 55,-260 48,-95 142,-142 239,-120 102,23 153,65 197,166 31,69 40,295 15,387 -23,85 -72,148 -138,181 -67,33 -166,43 -220,22 z m 158,-117 c 86,-53 52,-199 -52,-225 -33,-8 -80,13 -104,46 -45,64 -34,133 29,176 44,29 83,31 127,3 z"
         id="path67" /><path
         d="m 4940,5604 c -235,-48 -300,-91 -300,-201 0,-96 60,-189 174,-265 33,-23 89,-65 123,-94 72,-61 99,-69 201,-59 73,7 76,8 158,73 46,37 101,79 123,94 73,50 129,170 117,251 -20,132 -154,196 -426,202 -80,2 -156,1 -170,-1 z"
         id="path69" /><path
         d="m 5036,4944 c -10,-11 -27,-34 -39,-53 -29,-46 -58,-65 -147,-102 -146,-60 -247,-49 -362,42 -70,54 -106,61 -139,28 -45,-45 -3,-155 85,-219 68,-51 141,-73 221,-68 l 70,5 -3,-49 c -2,-26 1,-87 7,-135 29,-222 162,-346 371,-346 63,0 99,5 139,21 174,68 244,182 245,404 l 1,106 47,-5 c 31,-4 68,1 115,15 118,36 194,98 222,181 19,58 -27,121 -88,121 -9,0 -39,-23 -66,-51 -60,-63 -112,-90 -186,-96 -138,-13 -273,54 -365,181 -27,37 -102,49 -128,20 z m 284,-554 c -14,-51 -87,-133 -145,-162 -73,-38 -140,-23 -211,49 -35,35 -70,100 -60,110 3,3 50,0 105,-6 96,-12 105,-11 198,14 54,14 102,30 107,35 16,16 18,4 6,-40 z"
         id="path71" /><path
         d="m 7074,4872 c -18,-12 -31,-44 -39,-97 -4,-27 -13,-65 -21,-84 -23,-55 -12,-71 50,-71 73,0 106,31 130,123 17,64 8,110 -24,127 -22,12 -80,13 -96,2 z"
         id="path73" /><path
         d="m 3063,4858 c -35,-17 -47,-60 -33,-115 20,-83 47,-132 76,-143 31,-12 78,-5 111,17 28,19 29,33 3,75 -11,18 -23,55 -26,81 -12,85 -63,118 -131,85 z"
         id="path75" /><path
         d="M 27,103 C 2,99 0,95 0,49 0,1 1,0 30,0 c 30,0 30,1 30,55 0,30 -1,54 -2,54 -2,-1 -15,-4 -31,-6 z"
         id="path77" /></g><g
       transform="matrix(0.04331385,0,0,-0.04331385,-108.8537,346.00244)"
       fill="#000000"
       stroke="none"
       id="g220"
       inkscape:label="shield"><path
         d="m 5210,8593 c -124,-176 -311,-359 -480,-471 -322,-214 -631,-307 -1060,-319 -139,-4 -216,-1 -310,12 -69,9 -150,19 -180,22 l -55,5 1,-1118 c 2,-1213 3,-1245 60,-1584 98,-587 344,-1097 744,-1543 203,-226 420,-426 594,-546 125,-86 398,-252 551,-336 39,-21 89,-51 113,-67 l 43,-29 102,54 c 528,282 697,389 967,613 275,229 510,505 692,813 186,315 283,563 364,925 70,311 66,227 71,1580 2,676 0,1232 -4,1236 -4,4 -71,-2 -148,-12 -200,-28 -578,-30 -730,-5 -240,40 -381,85 -585,187 -246,124 -455,295 -615,504 -33,43 -69,89 -80,103 l -20,25 z m 76,-346 c 40,-48 225,-201 339,-279 253,-174 602,-311 903,-354 129,-19 433,-24 595,-11 l 97,8 V 6587 c 0,-1191 -3,-1243 -82,-1592 -78,-347 -173,-575 -371,-890 -139,-220 -388,-499 -597,-670 -137,-111 -453,-321 -580,-384 -51,-26 -270,-145 -314,-171 -28,-17 -29,-17 -130,40 -55,31 -148,83 -206,115 -229,127 -491,322 -704,525 -178,169 -403,465 -544,715 -150,267 -239,526 -301,875 -38,213 -41,310 -41,1390 v 1055 h 262 c 291,0 391,11 598,65 235,62 520,199 706,339 102,76 317,276 323,299 3,13 5,13 14,-4 5,-10 20,-31 33,-47 z"
         id="path206" /><path
         d="m 5200,8114 c -125,-129 -387,-312 -589,-413 -226,-113 -409,-176 -620,-211 -113,-19 -157,-22 -293,-18 l -160,5 6,-36 c 3,-20 6,-41 6,-47 0,-8 44,-14 135,-19 289,-16 597,61 950,235 191,94 325,180 498,319 128,103 128,103 150,85 12,-11 24,-22 27,-25 22,-24 203,-167 257,-202 132,-85 159,-101 323,-182 331,-165 538,-219 892,-233 l 166,-7 6,38 c 4,21 4,42 1,48 -4,5 -60,9 -125,9 -227,0 -468,50 -725,151 -159,63 -237,101 -380,187 -155,93 -203,130 -330,254 -64,61 -121,108 -132,108 -10,0 -39,-21 -63,-46 z"
         id="path208" /><path
         d="m 6843,7270 c -43,-19 -53,-34 -53,-82 0,-38 48,-88 85,-88 48,0 83,27 95,72 10,36 9,44 -7,67 -11,14 -33,31 -49,37 -25,11 -37,10 -71,-6 z"
         id="path210" /><path
         d="m 3545,7248 c -22,-26 -26,-39 -21,-66 15,-97 124,-111 160,-20 21,52 20,65 -9,93 -37,38 -95,35 -130,-7 z"
         id="path212" /><path
         d="m 3476,5773 c -19,-314 49,-752 166,-1073 165,-448 430,-814 833,-1150 94,-78 232,-170 238,-158 1,2 12,17 24,35 l 23,32 -68,42 c -205,128 -475,388 -628,604 -245,345 -361,609 -438,1000 -49,249 -56,318 -56,562 v 213 h -44 -43 z"
         id="path214" /><path
         d="m 6975,5597 c -1,-248 -4,-297 -24,-407 -36,-203 -71,-326 -155,-542 -49,-128 -177,-365 -261,-483 -164,-231 -493,-541 -697,-657 -32,-18 -74,-42 -93,-53 l -34,-20 16,-32 c 8,-18 21,-33 28,-33 25,0 195,91 272,146 301,216 556,506 733,833 137,253 207,448 265,736 50,250 57,336 49,583 l -7,212 h -46 -46 z"
         id="path216" /><path
         d="M 27,103 C 2,99 0,95 0,49 0,1 1,0 30,0 c 30,0 30,1 30,55 0,30 -1,54 -2,54 -2,-1 -15,-4 -31,-6 z"
         id="path218" /></g></g></svg>
