<?xml version="1.0" encoding="UTF-8" standalone="no"?>
<svg
   version="1.0"
   width="632pt"
   height="668pt"
   viewBox="0 0 632 668"
   preserveAspectRatio="xMidYMid"
   id="svg220"
   sodipodi:docname="sid-logo-no-shield.svg"
   inkscape:version="1.2 (dc2aedaf03, 2022-05-15)"
   xmlns:inkscape="http://www.inkscape.org/namespaces/inkscape"
   xmlns:sodipodi="http://sodipodi.sourceforge.net/DTD/sodipodi-0.dtd"
   xmlns="http://www.w3.org/2000/svg"
   xmlns:svg="http://www.w3.org/2000/svg">
  <defs
     id="defs224" />
  <sodipodi:namedview
     id="namedview222"
     pagecolor="#ffffff"
     bordercolor="#000000"
     borderopacity="0.25"
     inkscape:showpageshadow="2"
     inkscape:pageopacity="0.0"
     inkscape:pagecheckerboard="0"
     inkscape:deskcolor="#d1d1d1"
     inkscape:document-units="pt"
     showgrid="false"
     inkscape:zoom="1.6655679"
     inkscape:cx="532.25089"
     inkscape:cy="386.6549"
     inkscape:window-width="1920"
     inkscape:window-height="991"
     inkscape:window-x="-9"
     inkscape:window-y="-9"
     inkscape:window-maximized="1"
     inkscape:current-layer="g972" />
  <path
     id="rect1240-5"
     style="display:inline;fill:#ffffff;stroke-width:0.725584"
     d="m 0.45082083,390.41914 c -0.30054722,-260.27943 -0.15027361,-130.13971 0,0 z M 36.755508,264.26826 c -4.602686,19.74649 -6.403772,39.65695 -4.873535,58.0708 3.199997,37.69997 11.700213,64.20052 29.200195,91.00049 28.099971,43.09996 74.014682,76.11883 136.814622,99.2188 22.19998,8.09999 54.80022,18.54697 80.2002,21.74697 15.79998,2.1 66.99923,2.1185 82.69921,-0.0815 35.39997,-5 91.63374,-22.04548 120.83371,-38.24547 5.7,-3.19999 14.01385,-7.51771 17.01385,-9.11771 18.59998,-10.39999 50.27177,-33.75594 68.67175,-55.15592 27.89997,-32.59996 32.66656,-75.06562 32.66656,-121.76557 0,-15.55979 -2.26983,-30.54772 -5.78613,-45.6709 z m 580.416502,0 c 4.87313,24.10603 7.0621,48.46806 3.81006,73.67139 -1.1,8.59999 -2.3001,16 -2.6001,16.5 -0.3,0.5 1.1,3.5002 3,6.70019 6.39999,10.29999 7.89951,18.60022 7.99951,42.7002 -4.85845,14.2568 -24.62244,-15.22289 -7.39892,57.19922 -11.49999,46.49995 -34.09994,85.60091 -70.89991,122.40088 -25.89997,25.79997 -45.90061,40.19972 -78.60058,56.6997 -46.82829,-20.18681 -134.16988,-102.045 -72,24.3003 -5.8469,1.00232 -10.89173,1.33485 -15.88037,1.49267 C 676.56158,566.08952 622.91921,290.38548 617.17201,264.26826 Z M 21.582657,385.63936 c -0.799999,-0.8 -0.600097,15.99962 0.399902,27.09961 0.599999,6.49999 2.399025,19.3004 3.999024,28.40039 7.399992,41.19995 20.200609,70.89993 44.100586,102.3999 12.59999,16.59998 35.599621,38.30109 54.099601,51.10107 12.49999,8.59999 15.90315,7.14872 12.40316,1.74872 -3.8,-6.09999 -3.45038,-6.22267 0.24961,-9.02267 2.2,-1.8 -0.55218,-4.12741 2.94782,-3.62741 6.29999,0.89999 9.99903,3.20127 12.99902,8.30127 8.3,13.89998 16.8005,25.69892 20.50049,28.39892 10.89999,7.89999 38.42525,21.70217 56.52524,25.10217 9.89999,1.9 26.31583,3.79445 30.91583,1.89445 10.59998,-4.39999 20.90354,-14.9515 21.60354,-25.05149 0.6,-8.49999 -4.02692,-19.22851 -13.12691,-32.8285 -13.59999,-20.39998 -34.6025,-36.69813 -44.00249,-42.69812 -5.99999,-3.8 -21.00011,-10.4001 -37.10009,-16.1001 C 155.99702,519.15758 119.78136,500.13983 97.281389,482.63984 85.581399,473.53985 67.682349,456.13905 57.282364,443.83906 45.682375,430.13908 38.181476,418.53963 29.381485,400.93965 25.281489,392.73966 21.782657,385.83936 21.582657,385.63936 Z m 587.099113,4.00048 c -0.19999,-0.2 -0.89961,1.59942 -1.5996,3.89942 -1.8,6.09999 -11.19991,23.70079 -18.39991,34.30078 -16.49998,24.69997 -41.29983,49.20031 -66.7998,66.30029 -22.69998,15.19999 -47.99973,28.29864 -71.69971,37.09864 -22.19998,8.29999 -42.50108,15.10107 -45.10107,15.10107 -1.2,0 -3.39991,1.29932 -4.89991,2.79932 -1.49999,1.59999 -5.68489,6.01802 -10.68488,9.41802 -10.19999,6.79999 -17.60088,13.8001 -20.40088,19.10009 -1,1.9 -4.4,6.00001 -7.5,9 -21.69998,20.99998 -26.41403,37.5818 -11.71404,49.88179 9.49999,7.99999 30.14874,11.40167 56.94872,4.60168 12.99998,-3.4 20.85207,-8.101 31.35206,-13.401 8.79999,-4.49999 32.26597,-14.4209 41.26596,-27.32089 4.99999,-7.09999 1.29614,-11.17713 4.79613,-12.47713 4,-1.4 3.13752,-4.90286 6.53752,-3.10286 5.6,3 6.30039,6.5002 2.90039,12.7002 -3.4,5.99999 0.57685,10.85316 10.97684,3.85317 22.18978,-8.6599 37.01229,-35.27794 55.01227,-57.87792 18.59999,-23.39997 42.43609,-56.82671 49.63608,-84.92669 4.09999,-16.09998 7.54429,-46.89347 8.54429,-60.49345 0.5,-8.19999 -8.97046,-8.25453 -9.17046,-8.45453 z M 236.87953,665.93281 c -20.56584,-1.47907 -44.02851,-7.89543 -69.19776,-19.09277 -151.494188,-127.57937 -42.64954,-9.89084 69.19776,19.09277 z m 30.01726,-113.87495 c 0,-1.14018 0.99952,3.2005 4.99951,8.50049 15.09999,20.09998 21.4002,33.99953 23.2002,51.49951 1,9.49999 0.10048,19.70011 -1.99951,23.6001 -0.7,1.2 -2.71406,6.99039 -2.21406,7.39039 1.3,1.4 24.26873,-1.81429 27.41376,-0.3899 l 7.49953,3.39654 5.69315,-6.88456 c -5.59999,-8.29999 -14.49267,-21.81219 -8.69268,-36.21218 5.8,-14.69998 12.99963,-24.19991 30.09961,-39.3999 5.6,-5.09999 10.19971,-9.50088 10.19971,-9.90088 0,-0.4 -2.4002,-0.29931 -5.2002,0.20069 -7.99999,1.4 -64.49933,1.30039 -77.79931,-0.0996 -6.3,-0.7 -13.19971,-0.75201 -13.19971,-1.70069 z m 10.18538,109.68111 c 10.41426,-12.74485 -6.55883,-9.59141 -10.65883,-7.59141 -6.41907,3.20954 -18.68737,12.27261 -28.28112,11.78525 62.81964,-17.85526 93.75489,0 140.63233,0 -4.88437,-0.17201 -9.65483,-0.53863 -14.59278,-1.59375 -4.99999,-1.1 -9.8,-1.7 -10.5,-1.5 -0.59999,-3.06465 -8.4002,-1.35148 -17.20019,-0.75148 -17.99998,1.1 -43.80121,-7.21743 -59.39941,-0.34861 z"
     sodipodi:nodetypes="cccccccccccsccccsccccccccsccccccsccccccccscsssccccscccscccccccccccscccsccccsccccsccsscccccccc"
     inkscape:label="white" />
  <g
     inkscape:groupmode="layer"
     id="layer1"
     inkscape:label="Background"
     style="display:inline">
    <path
       style="fill:#ff8434;fill-opacity:1;stroke-width:0.75"
       d="M 28.818999,345.82798 C 115.10373,322.14345 172.1998,333.12226 211.21025,364.05839 263.80888,253.92565 370.62513,257.05788 420.58824,360.98356 495.99744,330.69765 511.47167,330.26854 607.41845,364.2769 601.94261,307.2393 602.28636,215.46292 556.56691,163.90805 432.16346,23.626336 145.24886,13.199357 66.643934,189.12468 l -37.824935,84.65581 z"
       id="path371"
       sodipodi:nodetypes="ccccsscc"
       inkscape:label="head" />
    <path
       style="fill:#ff6600;stroke-width:0.75"
       d="M 68.975894,188.76129 C 147.82018,152.1988 161.82467,111.58805 205.05472,68.885381 L 50.945274,14.00995 35.024875,33.114428 Z"
       id="path1019"
       inkscape:label="leftear"
       sodipodi:nodetypes="ccccc" />
    <path
       style="fill:#ff6600;stroke-width:0.75"
       d="M 425.08023,75.649872 560.16929,14.409499 597.09363,40.526717 566.47345,195.42883 C 518.4159,160.91651 479.84231,145.88427 425.08023,75.649872 Z"
       id="path1160"
       inkscape:label="rightear"
       sodipodi:nodetypes="ccccc" />
    <path
       style="display:inline;opacity:0.67;fill:#d45500;stroke-width:0.75"
       d="M 252.0934,515.02703 C 124.27791,331.69302 110.55492,346.71858 122.4079,177.30439 L 61.167532,46.718301 76.477632,184.50915 C 12.383772,331.13491 57.183072,501.35479 252.0934,515.02703 Z"
       id="path1179-1"
       sodipodi:nodetypes="ccccc"
       inkscape:label="shadoworange" />
    <path
       id="path1512"
       style="display:inline;opacity:1;fill:#cccccc;stroke-width:0.75"
       d="m 131.81543,333.56543 c -46.010555,1.04553 -69.647702,3.66828 -80.589844,6.88184 C 62.711625,431.71548 125.90941,506.28374 252.16553,515.14014 184.29627,417.79088 148.59919,376.36916 131.81543,333.56543 Z"
       inkscape:label="shadowgray" />
  </g>
  <g
     id="g972"
     inkscape:label="border"
     style="display:inline"
     transform="matrix(0.1,0,0,-0.1,-192.667,846.8463)">
    <path
       d="m 2438,8454 c -80,-19 -126,-45 -179,-101 -88,-92 -122,-184 -122,-328 1,-67 14,-157 51,-350 28,-143 72,-368 97,-500 25,-132 59,-298 75,-369 17,-72 30,-141 30,-155 0,-13 -27,-72 -59,-130 -273,-486 -364,-964 -286,-1504 16,-105 16,-120 2,-135 -23,-26 -65,-125 -87,-205 -28,-96 -37,-304 -21,-462 15,-142 71,-429 105,-536 95,-294 239,-564 443,-831 158,-206 469,-483 694,-619 45,-27 86,-53 93,-58 28,-22 229,-125 343,-176 254,-113 491,-178 698,-192 100,-6 175,6 241,39 41,20 43,20 155,4 183,-27 414,-37 594,-26 226.8152,27.4918 440.4221,-34.1998 640,-1 245,43 481,122 720,243 327,165 527,309 786,567 368,368 594,759 709,1224 65,268 74,336 74,572 -1,241 -16,324 -80,427 -19,32 -33,62 -30,67 3,5 15,79 26,165 44,341 14,669 -91,992 -49,151 -150,367 -242,518 -28,45 -34,63 -27,77 6,10 22,80 36,156 14,76 43,233 65,348 84,448 133,800 127,909 -10,188 -139,342 -316,377 -142,27 -273,-13 -732,-224 -50,-23 -268,-117 -384,-167 -141,-59 -316,-148 -316,-160 0,-7 -6,-7 -18,-1 -48,26 -455,125 -637,155 -252,42 -759,54 -970,23 -191,-28 -405,-75 -553,-122 l -143,-46 -72,34 c -40,19 -106,48 -147,65 -41,17 -122,51 -180,75 -603,256 -809,339 -896,362 -70,18 -139,18 -216,-1 z m 238,-258 c 121,-41 491,-196 876,-367 86,-38 161,-69 165,-69 5,0 38,-17 74,-39 111,-64 119,-65 218,-31 142,48 348,99 538,132 158,27 207,31 432,35 439,9 755,-37 1159,-168 l 122,-40 103,55 c 56,30 158,79 227,109 128,56 383,171 545,247 143,66 332,140 389,152 79,17 135,-2 190,-63 84,-94 84,-92 46,-339 -37,-243 -64,-400 -143,-815 -81,-424 -83,-364 13,-535 121,-217 164,-314 219,-495 62,-202 91,-396 91,-601 0,-467 -140,-863 -419,-1189 -184,-214 -445,-438 -631,-542 -30,-16 -102,-56 -159,-88 -292,-162 -840,-342 -1194,-392 -157,-22 -669,-25 -827,-4 -254,32 -580,111 -802,192 -628,231 -1076,558 -1357,989 -175,268 -260,533 -292,910 -30,361 65,780 257,1130 31,58 74,137 95,175 l 37,70 -18,75 c -18,70 -58,253 -130,590 -17,80 -41,204 -55,275 -13,72 -40,206 -59,299 l -34,168 29,58 c 34,66 59,92 115,120 52,26 96,25 180,-4 z M 2234,4454 c 88,-176 163,-292 279,-429 104,-123 283,-297 400,-388 225,-175 576,-362 897,-478 161,-57 311,-123 371,-161 94,-60 259,-250 395,-454 91,-136 117,-205 111,-290 -7,-101 -65,-175 -171,-219 -46,-19 -172,-19 -271,0 -181,34 -463,145 -572,224 -37,27 -122,145 -205,284 -30,51 -67,74 -130,83 -35,5 -48,2 -70,-16 -37,-28 -36,-63 2,-124 35,-54 37,-55 -88,31 -185,128 -415,345 -541,511 -239,315 -367,612 -441,1024 -16,91 -34,219 -40,284 -10,111 -12,279 -4,271 2,-2 37,-71 78,-153 z m 5786,-40 c -10,-136 -54,-393 -95,-554 -72,-281 -228,-591 -414,-825 -180,-226 -371,-410 -558,-536 -104,-70 -110,-71 -76,-11 34,62 27,97 -29,127 -34,18 -40,19 -80,5 -35,-13 -52,-29 -102,-100 -90,-129 -256,-289 -344,-334 -105,-53 -161,-73 -291,-107 -268,-68 -497,-61 -592,19 -147,123 -111,292 106,502 31,30 65,71 75,90 28,53 102,123 204,191 50,34 103,75 118,91 15,15 37,28 49,28 26,0 229,68 451,151 237,88 490,219 717,371 255,171 503,416 668,663 72,106 166,282 184,343 7,23 14,41 16,39 2,-2 -2,-71 -7,-153 z M 4730,2929 c 133,-14 698,-15 778,-1 28,5 52,6 52,2 0,-4 -46,-48 -102,-99 -171,-152 -243,-247 -301,-394 -58,-144 -58,-278 -2,-361 l 24,-36 h -67 c -73,0 -242,26 -255,40 -5,4 -4,18 3,30 21,39 30,141 20,236 -18,175 -81,314 -232,515 -40,53 -61,88 -50,85 9,-3 69,-10 132,-17 z"
       id="path198"
       sodipodi:nodetypes="ccccscsccccccccccccccccccccsccccscccccsccccccscccccscccccccccccccccscccccccccccccccccscscsccccccccsccccccsscccccccccccscccsccccscccsccccscccccc"
       inkscape:label="dogborder" />
    <path
       d="m 7233,7705 c -24,-17 -107,-132 -192,-265 -79,-124 -109,-180 -116,-222 -7,-38 -7,-38 26,-38 46,-1 65,-13 171,-111 126,-117 210,-189 230,-200 18,-10 -128,178 -185,238 l -30,32 46,88 c 44,86 118,252 156,354 23,59 17,85 -25,118 -32,25 -52,26 -81,6 z"
       id="path200"
       inkscape:label="innereyeright" />
    <path
       d="m 2842,7687 c -31,-33 -28,-59 24,-177 25,-58 66,-154 90,-215 25,-60 56,-120 69,-132 l 24,-21 -22,-15 c -25,-16 -178,-196 -211,-248 l -21,-34 30,22 c 17,11 79,67 139,123 136,127 200,171 261,177 25,3 45,7 45,10 0,28 -260,452 -313,511 -28,31 -86,30 -115,-1 z"
       id="path202"
       inkscape:label="innereyeleft" />
    <g
       id="g1776"
       inkscape:label="eyeleft">
      <path
         id="rect1767"
         style="fill:#ffffff;stroke-width:7.5"
         d="M 3924.2335 -6038.6534 C 3910.8429 -6038.8097 3896.6934 -6036.379 3882.8809 -6031.754 C 3869.0685 -6027.129 3855.5948 -6020.3087 3843.5792 -6011.715 C 3837.5714 -6007.4181 3831.92 -6002.6866 3826.7774 -5997.5499 C 3821.6348 -5992.4132 3816.9932 -5986.8722 3812.9932 -5980.9972 C 3805.7432 -5970.2472 3800.3145 -5959.3185 3796.6895 -5948.2872 C 3793.0645 -5937.256 3791.255 -5926.131 3791.255 -5915.006 C 3791.255 -5903.881 3793.0645 -5892.756 3796.6895 -5881.7247 C 3800.3145 -5870.6935 3805.7432 -5859.7501 3812.9932 -5849.0001 C 3818.4932 -5840.7501 3824.3331 -5833.4112 3830.4249 -5826.9835 C 3836.5167 -5820.5558 3842.8692 -5815.046 3849.4239 -5810.4601 C 3855.9786 -5805.8741 3862.7354 -5802.213 3869.6241 -5799.4884 C 3876.5128 -5796.7638 3883.5362 -5794.9708 3890.63 -5794.1271 C 3897.7237 -5793.2833 3904.8761 -5793.378 3912.046 -5794.4347 C 3919.2159 -5795.4913 3926.4034 -5797.5079 3933.5206 -5800.4845 C 3940.6378 -5803.461 3947.6934 -5807.4044 3954.629 -5812.3204 C 3961.5645 -5817.2364 3968.38 -5823.1261 3975.005 -5830.0011 C 3981.38 -5836.6261 3986.8311 -5844.2404 3991.3819 -5852.545 C 3995.9327 -5860.8497 3999.5733 -5869.8429 4002.3389 -5879.2491 C 4005.1046 -5888.6554 4006.9884 -5898.4698 4008.0079 -5908.3995 C 4009.0274 -5918.3292 4009.1934 -5928.378 4008.5059 -5938.253 C 4007.8184 -5948.128 4006.2764 -5957.8243 4003.921 -5967.0665 C 4001.5655 -5976.3087 3998.3839 -5985.0948 3994.3995 -5993.1261 C 3990.4151 -6001.1573 3985.6329 -6008.4318 3980.0587 -6014.6739 C 3974.4845 -6020.9161 3968.126 -6026.1212 3961.0011 -6029.9962 C 3955.6261 -6032.8712 3949.7872 -6035.0011 3943.6134 -6036.4269 C 3937.4395 -6037.8526 3930.9288 -6038.5753 3924.2335 -6038.6534 z "
         transform="scale(1,-1)" />
      <path
         id="path1771"
         style="fill:#000000;stroke-width:7.5"
         d="M 3920.1319 -6149.63 C 3902.0694 -6150.8175 3884.1553 -6150.0372 3866.5772 -6147.2716 C 3848.9991 -6144.506 3831.7501 -6139.754 3815.0001 -6133.004 C 3804.0001 -6128.504 3789.2549 -6120.7491 3774.38 -6111.7491 C 3759.505 -6102.7491 3744.4981 -6092.4942 3732.9981 -6082.9942 C 3725.2481 -6076.7443 3718.1309 -6070.2472 3711.5821 -6063.3507 C 3705.0333 -6056.4542 3699.0538 -6049.17 3693.6085 -6041.3341 C 3688.1632 -6033.4982 3683.253 -6025.1192 3678.8136 -6016.0509 C 3674.3741 -6006.9825 3670.4063 -5997.2159 3666.8751 -5986.6222 C 3659.8126 -5965.4347 3654.4698 -5940.9034 3650.4542 -5911.8566 C 3646.4386 -5882.8097 3643.752 -5849.2559 3642.002 -5810.006 C 3640.752 -5775.756 3640.7032 -5743.5587 3641.8848 -5713.3849 C 3643.0665 -5683.2111 3645.4718 -5655.0587 3649.1358 -5628.8634 C 3652.7999 -5602.6681 3657.7188 -5578.4337 3663.9161 -5556.1192 C 3670.1134 -5533.8048 3677.5909 -5513.4054 3686.3721 -5494.8741 C 3695.1534 -5476.3429 3705.2491 -5459.6808 3716.6651 -5444.8351 C 3728.0811 -5429.9894 3740.8253 -5416.9669 3754.9268 -5405.7091 C 3769.0284 -5394.4513 3784.4806 -5384.9562 3801.3184 -5377.1886 C 3818.1563 -5369.421 3836.3761 -5363.3702 3856.0011 -5358.9952 C 3878.001 -5353.9952 3894.4952 -5351.503 3909.9952 -5351.378 C 3925.4952 -5351.253 3939.9981 -5353.4991 3957.9981 -5357.9991 C 3971.2481 -5361.4991 3985.128 -5366.6808 3998.9405 -5373.087 C 4012.753 -5379.4933 4026.502 -5387.1241 4039.502 -5395.4991 C 4052.502 -5403.8741 4064.754 -5413.0021 4075.5665 -5422.4083 C 4086.379 -5431.8146 4095.753 -5441.5021 4103.003 -5451.0021 C 4111.753 -5462.7521 4119.752 -5478.3097 4126.9239 -5497.2472 C 4134.0958 -5516.1847 4140.4415 -5538.5011 4145.879 -5563.7511 C 4151.3165 -5589.0011 4155.838 -5617.1896 4159.3848 -5647.8771 C 4162.9317 -5678.5645 4165.502 -5711.7531 4167.002 -5747.003 C 4168.252 -5775.128 4168.8272 -5801.1349 4168.6573 -5825.2403 C 4168.4874 -5849.3458 4167.5723 -5871.5529 4165.8302 -5892.0372 C 4164.088 -5912.5216 4161.5186 -5931.2892 4158.0518 -5948.5509 C 4154.585 -5965.8126 4150.212 -5981.5597 4144.8682 -5995.9972 C 4139.5245 -6010.4347 4133.213 -6023.5656 4125.8399 -6035.5773 C 4118.4669 -6047.589 4110.0382 -6058.4786 4100.4835 -6068.463 C 4090.9288 -6078.4474 4080.2481 -6087.5294 4068.3595 -6095.8849 C 4056.4708 -6104.2403 4043.3741 -6111.8751 4028.9991 -6119.0001 C 4010.9991 -6128.0001 3992.8126 -6135.0577 3974.6095 -6140.1671 C 3956.4063 -6145.2765 3938.1944 -6148.4425 3920.1319 -6149.63 z M 3924.2335 -6038.6534 C 3930.9288 -6038.5753 3937.4395 -6037.8526 3943.6134 -6036.4269 C 3949.7872 -6035.0011 3955.6261 -6032.8712 3961.0011 -6029.9962 C 3968.126 -6026.1212 3974.4845 -6020.9161 3980.0587 -6014.6739 C 3985.6329 -6008.4318 3990.4151 -6001.1573 3994.3995 -5993.1261 C 3998.3839 -5985.0948 4001.5655 -5976.3087 4003.921 -5967.0665 C 4006.2764 -5957.8243 4007.8184 -5948.128 4008.5059 -5938.253 C 4009.1934 -5928.378 4009.0274 -5918.3292 4008.0079 -5908.3995 C 4006.9884 -5898.4698 4005.1046 -5888.6554 4002.3389 -5879.2491 C 3999.5733 -5869.8429 3995.9327 -5860.8497 3991.3819 -5852.545 C 3986.8311 -5844.2404 3981.38 -5836.6261 3975.005 -5830.0011 C 3968.38 -5823.1261 3961.5645 -5817.2364 3954.629 -5812.3204 C 3947.6934 -5807.4044 3940.6378 -5803.461 3933.5206 -5800.4845 C 3926.4034 -5797.5079 3919.2159 -5795.4913 3912.046 -5794.4347 C 3904.8761 -5793.378 3897.7237 -5793.2833 3890.63 -5794.1271 C 3883.5362 -5794.9708 3876.5128 -5796.7638 3869.6241 -5799.4884 C 3862.7354 -5802.213 3855.9786 -5805.8741 3849.4239 -5810.4601 C 3842.8692 -5815.046 3836.5167 -5820.5558 3830.4249 -5826.9835 C 3824.3331 -5833.4112 3818.4932 -5840.7501 3812.9932 -5849.0001 C 3805.7432 -5859.7501 3800.3145 -5870.6935 3796.6895 -5881.7247 C 3793.0645 -5892.756 3791.255 -5903.881 3791.255 -5915.006 C 3791.255 -5926.131 3793.0645 -5937.256 3796.6895 -5948.2872 C 3800.3145 -5959.3185 3805.7432 -5970.2472 3812.9932 -5980.9972 C 3816.9932 -5986.8722 3821.6348 -5992.4132 3826.7774 -5997.5499 C 3831.92 -6002.6866 3837.5714 -6007.4181 3843.5792 -6011.715 C 3855.5948 -6020.3087 3869.0685 -6027.129 3882.8809 -6031.754 C 3896.6934 -6036.379 3910.8429 -6038.8097 3924.2335 -6038.6534 z "
         transform="scale(1,-1)" />
    </g>
    <g
       id="g1713"
       inkscape:label="eyeright">
      <path
         id="rect1692"
         style="fill:#ffffff;stroke-width:0.75"
         d="M 431.58253 243.95948 C 430.54503 243.99073 429.50821 244.19922 428.45509 244.58204 C 427.40196 244.96485 426.33243 245.5211 425.23243 246.2461 C 424.44493 246.7836 423.73995 247.36192 423.11573 247.97461 C 422.49151 248.58731 421.94913 249.23389 421.48975 249.90967 C 421.03038 250.58545 420.65333 251.29083 420.36036 252.01758 C 420.06739 252.74434 419.85841 253.49317 419.73341 254.25879 C 419.60841 255.02442 419.56729 255.80577 419.61182 256.59815 C 419.65636 257.39053 419.78585 258.19346 420.00147 259.00049 C 420.2171 259.80752 420.51847 260.61963 420.90675 261.4292 C 421.29503 262.23877 421.77101 263.0462 422.3335 263.8462 C 422.9335 264.6712 423.67618 265.42139 424.50587 266.06983 C 425.33555 266.71827 426.25157 267.26534 427.19532 267.68409 C 428.13907 268.10284 429.11104 268.39336 430.05323 268.5293 C 430.99542 268.66524 431.90743 268.64581 432.73243 268.44581 C 434.03243 268.12081 435.22345 267.6086 436.29493 266.9502 C 437.36641 266.2918 438.31915 265.48721 439.14259 264.57862 C 439.96602 263.67003 440.66095 262.65713 441.21681 261.58155 C 441.77266 260.50596 442.18878 259.36885 442.45753 258.20948 C 442.72628 257.0501 442.84698 255.86846 442.80909 254.7085 C 442.7712 253.54854 442.5755 252.40938 442.21143 251.33204 C 441.84737 250.25469 441.31573 249.23916 440.60597 248.32764 C 439.8962 247.41612 439.00762 246.60831 437.93263 245.94581 C 436.83263 245.24581 435.76456 244.73448 434.71143 244.40479 C 433.65831 244.0751 432.62003 243.92823 431.58253 243.95948 z "
         transform="matrix(9.9999998,0,0,-9.9999998,1926.67,8468.463)" />
      <path
         id="path1708"
         style="fill:#000000;stroke-width:0.75"
         d="M 426.90675 233.23975 C 425.11456 233.38975 423.48282 233.7211 422.13282 234.2461 C 420.48282 234.8586 418.98145 235.54151 417.6211 236.31299 C 416.26075 237.08448 415.04122 237.94444 413.95606 238.91163 C 412.87091 239.87881 411.91964 240.95372 411.09522 242.15333 C 410.27081 243.35293 409.57423 244.67774 408.9961 246.14649 C 408.41798 247.61524 407.95811 249.22784 407.61182 251.00245 C 407.26554 252.77705 407.03175 254.71387 406.90284 256.83106 C 406.77393 258.94825 406.75118 261.24571 406.8252 263.74219 C 406.89923 266.23867 407.071 268.93321 407.3335 271.84571 C 407.6835 275.6457 408.00128 278.77823 408.33253 281.43604 C 408.66378 284.09385 409.00772 286.27686 409.40772 288.18311 C 409.80772 290.08936 410.26358 291.71788 410.81983 293.26319 C 411.37608 294.8085 412.03253 296.27169 412.83253 297.84669 C 413.43253 299.03418 414.10548 300.14581 414.84083 301.17921 C 415.57618 302.2126 416.37462 303.16749 417.22852 304.03858 C 418.08243 304.90967 418.99161 305.69786 419.94727 306.39844 C 420.90294 307.09903 421.90519 307.71202 422.94581 308.23389 C 423.98643 308.75577 425.06554 309.18653 426.17432 309.52149 C 427.28311 309.85645 428.4214 310.09503 429.58155 310.23487 C 430.74171 310.37471 431.92296 310.41553 433.11768 310.35206 C 434.31241 310.28858 435.52042 310.12169 436.73292 309.84669 C 439.28292 309.27169 441.51485 308.57715 443.4961 307.70215 C 444.48673 307.26466 445.41388 306.78204 446.28809 306.2461 C 447.16231 305.71016 447.98282 305.12071 448.75782 304.47071 C 449.53282 303.82071 450.26212 303.11026 450.95509 302.33057 C 451.64806 301.55089 452.3045 300.70235 452.93263 299.77735 C 454.18888 297.92735 455.3336 295.77061 456.4336 293.24561 C 456.8211 292.38311 457.17335 291.2753 457.48976 289.97901 C 457.80616 288.68272 458.08556 287.19795 458.32618 285.58155 C 458.80743 282.34874 459.13272 278.59053 459.28272 274.75928 C 459.43272 270.92804 459.40772 267.02373 459.18897 263.50342 C 459.0796 261.74327 458.92149 260.07881 458.7129 258.5669 C 458.50431 257.05499 458.2461 255.6959 457.9336 254.5459 C 457.3586 252.42091 456.62081 250.43321 455.73487 248.59571 C 454.84894 246.75821 453.81427 245.07139 452.64552 243.54639 C 451.47677 242.02139 450.17393 240.6587 448.7505 239.4712 C 447.32706 238.2837 445.78331 237.27129 444.13331 236.44629 C 442.45831 235.62129 440.58311 234.93955 438.62843 234.41456 C 436.67374 233.88956 434.63975 233.52178 432.646 233.32178 C 430.65226 233.12178 428.69893 233.08975 426.90675 233.23975 z M 431.58253 243.95948 C 432.62003 243.92823 433.65831 244.0751 434.71143 244.40479 C 435.76456 244.73448 436.83263 245.24581 437.93263 245.94581 C 439.00762 246.60831 439.8962 247.41612 440.60597 248.32764 C 441.31573 249.23916 441.84737 250.25469 442.21143 251.33204 C 442.5755 252.40938 442.7712 253.54854 442.80909 254.7085 C 442.84698 255.86846 442.72628 257.0501 442.45753 258.20948 C 442.18878 259.36885 441.77266 260.50596 441.21681 261.58155 C 440.66095 262.65713 439.96602 263.67003 439.14259 264.57862 C 438.31915 265.48721 437.36641 266.2918 436.29493 266.9502 C 435.22345 267.6086 434.03243 268.12081 432.73243 268.44581 C 431.90743 268.64581 430.99542 268.66524 430.05323 268.5293 C 429.11104 268.39336 428.13907 268.10284 427.19532 267.68409 C 426.25157 267.26534 425.33555 266.71827 424.50587 266.06983 C 423.67618 265.42139 422.9335 264.6712 422.3335 263.8462 C 421.77101 263.0462 421.29503 262.23877 420.90675 261.4292 C 420.51847 260.61963 420.2171 259.80752 420.00147 259.00049 C 419.78585 258.19346 419.65636 257.39053 419.61182 256.59815 C 419.56729 255.80577 419.60841 255.02442 419.73341 254.25879 C 419.85841 253.49317 420.06739 252.74434 420.36036 252.01758 C 420.65333 251.29083 421.03038 250.58545 421.48975 249.90967 C 421.94913 249.23389 422.49151 248.58731 423.11573 247.97461 C 423.73995 247.36192 424.44493 246.7836 425.23243 246.2461 C 426.33243 245.5211 427.40196 244.96485 428.45509 244.58204 C 429.50821 244.19922 430.54503 243.99073 431.58253 243.95948 z "
         transform="matrix(9.9999998,0,0,-9.9999998,1926.67,8468.463)" />
    </g>
    <path
       d="m 4940,5604 c -235,-48 -300,-91 -300,-201 0,-96 60,-189 174,-265 33,-23 89,-65 123,-94 72,-61 99,-69 201,-59 73,7 76,8 158,73 46,37 101,79 123,94 73,50 129,170 117,251 -20,132 -154,196 -426,202 -80,2 -156,1 -170,-1 z"
       id="path208"
       inkscape:label="nose" />
    <path
       d="m 5036,4944 c -10,-11 -27,-34 -39,-53 -29,-46 -58,-65 -147,-102 -146,-60 -247,-49 -362,42 -70,54 -106,61 -139,28 -45,-45 -3,-155 85,-219 68,-51 141,-73 221,-68 l 70,5 -3,-49 c -2,-26 1,-87 7,-135 29,-222 162,-346 371,-346 63,0 99,5 139,21 174,68 244,182 245,404 l 1,106 47,-5 c 31,-4 68,1 115,15 118,36 194,98 222,181 19,58 -27,121 -88,121 -9,0 -39,-23 -66,-51 -60,-63 -112,-90 -186,-96 -138,-13 -273,54 -365,181 -27,37 -102,49 -128,20 z m 284,-554 c -14,-51 -87,-133 -145,-162 -73,-38 -140,-23 -211,49 -35,35 -70,100 -60,110 3,3 50,0 105,-6 96,-12 105,-11 198,14 54,14 102,30 107,35 16,16 18,4 6,-40 z"
       id="path210"
       inkscape:label="mouse" />
    <path
       d="m 7074,4872 c -18,-12 -31,-44 -39,-97 -4,-27 -13,-65 -21,-84 -23,-55 -12,-71 50,-71 73,0 106,31 130,123 17,64 8,110 -24,127 -22,12 -80,13 -96,2 z"
       id="path212"
       inkscape:label="rightbp" />
    <path
       d="m 3063,4858 c -35,-17 -47,-60 -33,-115 20,-83 47,-132 76,-143 31,-12 78,-5 111,17 28,19 29,33 3,75 -11,18 -23,55 -26,81 -12,85 -63,118 -131,85 z"
       id="path214"
       inkscape:label="leftbp" />
  </g>
</svg>
