<?xml version="1.0" standalone="no"?>
<!DOCTYPE svg PUBLIC "-//W3C//DTD SVG 20010904//EN"
 "http://www.w3.org/TR/2001/REC-SVG-20010904/DTD/svg10.dtd">
<svg version="1.0" xmlns="http://www.w3.org/2000/svg"
 width="492.000000pt" height="558.000000pt" viewBox="0 0 492.000000 558.000000"
 preserveAspectRatio="xMidYMid meet">

<g transform="translate(0.000000,558.000000) scale(0.100000,-0.100000)"
fill="#000000" stroke="none">
<path d="M2445 5421 c-48 -18 -501 -222 -695 -314 -112 -52 -278 -127 -284
-127 -4 0 -238 -108 -383 -176 -28 -13 -55 -24 -59 -24 -3 0 -63 -27 -133 -59
-69 -32 -199 -92 -289 -132 -169 -75 -207 -102 -229 -161 -14 -41 -17 -1805
-3 -1998 21 -290 121 -634 262 -900 232 -438 573 -779 1062 -1060 189 -108
530 -258 730 -319 120 -37 171 -29 406 66 489 197 862 433 1171 742 214 214
347 398 474 656 113 230 169 395 217 650 27 147 34 427 31 1379 -3 741 -3 750
-24 790 -11 23 -28 50 -37 60 -18 20 -135 78 -310 153 -57 24 -131 56 -165 72
-104 48 -374 170 -522 236 -77 35 -171 77 -210 95 -38 18 -115 52 -170 77
-225 100 -335 150 -491 221 -218 100 -255 107 -349 73z m486 -317 c211 -96
427 -195 479 -219 52 -24 124 -56 160 -72 l65 -29 -85 -44 c-134 -70 -317
-230 -379 -332 -12 -21 -25 -38 -27 -38 -2 0 -53 13 -112 30 -185 51 -284 63
-527 63 -204 1 -229 -1 -345 -27 -197 -43 -182 -43 -204 -5 -30 50 -213 230
-278 273 -31 20 -87 49 -124 63 l-67 26 24 18 c13 10 60 34 104 53 98 42 602
271 780 355 72 33 135 60 141 61 7 0 185 -79 395 -176z m-1437 -450 c94 -38
211 -128 283 -217 35 -43 63 -82 63 -87 0 -5 -24 -21 -52 -35 -29 -15 -85 -48
-125 -75 l-71 -48 -25 36 c-14 20 -48 74 -77 120 -67 107 -87 110 -123 20 -86
-217 -100 -430 -41 -628 l16 -54 33 83 c118 297 385 474 825 547 116 19 404
18 538 -2 314 -46 583 -161 751 -319 84 -79 152 -177 201 -289 l34 -77 14 38
c24 69 52 236 58 348 10 180 -43 461 -85 453 -21 -4 -122 -147 -177 -253 -26
-49 -48 -92 -50 -94 -2 -2 -31 17 -66 42 -35 24 -91 60 -126 79 l-63 35 68 84
c122 152 247 254 372 305 95 40 101 37 149 -63 155 -327 227 -646 202 -893
-10 -93 -60 -294 -100 -398 -24 -62 -27 -181 -6 -257 30 -114 111 -233 234
-345 45 -41 82 -77 82 -81 0 -13 -141 -98 -271 -164 -69 -35 -131 -71 -138
-79 -10 -12 -2 -20 51 -49 35 -20 96 -45 136 -57 39 -11 72 -24 72 -28 0 -13
-71 -124 -115 -181 -47 -61 -208 -221 -266 -265 -47 -34 -70 -85 -47 -100 13
-8 8 -16 -35 -47 -29 -20 -75 -48 -104 -62 -112 -57 -53 -65 76 -11 278 117
623 439 688 640 19 62 13 91 -28 135 l-31 34 43 35 c135 108 189 209 141 266
-9 11 -49 39 -87 61 -73 43 -145 111 -187 179 -34 54 -54 117 -73 232 l-17 99
25 36 c74 109 118 402 97 646 -16 190 -96 485 -157 578 -10 15 -23 41 -29 58
-6 16 -15 38 -19 47 -5 14 10 10 71 -18 44 -20 166 -76 273 -125 107 -49 202
-96 213 -106 18 -16 19 -44 15 -972 -3 -1050 1 -976 -67 -1248 -87 -349 -211
-598 -439 -876 -281 -344 -672 -630 -1176 -857 -22 -10 -69 -32 -105 -48 -94
-44 -172 -72 -197 -72 -12 0 -50 11 -85 24 -131 50 -205 79 -263 106 -33 16
-109 51 -170 78 -192 88 -327 162 -389 213 -17 14 -65 48 -106 75 -141 93
-353 287 -466 428 -21 28 -49 61 -61 74 -13 14 -23 30 -23 37 0 6 -11 22 -25
35 -33 31 -170 282 -222 407 -79 192 -141 422 -174 648 -18 120 -19 196 -19
1032 l0 902 33 24 c29 22 513 245 565 261 l22 7 -19 -43 c-11 -24 -31 -68 -45
-99 -38 -84 -103 -311 -122 -424 -26 -155 -24 -409 4 -560 13 -65 35 -146 49
-180 14 -33 26 -73 25 -90 0 -36 -75 -261 -107 -325 -45 -89 -100 -145 -185
-189 -92 -48 -107 -68 -91 -120 14 -47 106 -159 166 -202 37 -27 43 -35 29
-38 -53 -10 -72 -86 -38 -154 16 -30 170 -246 184 -257 3 -3 19 -22 34 -42 15
-21 36 -40 47 -43 10 -4 19 -11 19 -18 0 -15 41 -57 55 -57 6 0 21 -13 33 -30
12 -16 34 -33 49 -36 15 -4 37 -19 50 -34 12 -15 37 -33 55 -40 18 -7 56 -23
83 -36 140 -66 195 -71 195 -18 0 26 -38 69 -71 79 -11 4 -50 26 -87 51 -37
24 -91 56 -120 71 -30 15 -78 54 -110 88 -60 64 -199 251 -226 304 -16 30 -16
31 11 37 120 26 226 84 208 113 -3 6 -38 27 -78 47 -79 39 -116 60 -192 109
-27 18 -60 35 -71 39 -18 6 -33 28 -38 58 -1 3 21 23 47 43 133 102 237 285
282 498 21 97 19 126 -16 230 -56 169 -70 244 -76 402 -10 270 45 498 194 800
l48 97 48 -7 c27 -3 77 -17 111 -31z m2203 -386 c15 -28 18 -58 18 -190 0 -96
-4 -161 -11 -168 -7 -7 -33 16 -85 77 l-75 86 52 99 c48 91 71 128 80 128 2 0
11 -15 21 -32z m-2222 -32 c66 -104 66 -98 -1 -169 -32 -34 -69 -76 -81 -92
l-22 -30 0 85 c-1 142 26 260 59 260 6 0 26 -25 45 -54z"/>
<path d="M2455 5077 c-38 -38 -44 -70 -21 -116 28 -54 117 -68 177 -28 89 60
48 163 -70 175 -47 4 -53 2 -86 -31z"/>
<path d="M2859 3587 c-20 -8 -50 -23 -66 -35 -50 -35 -95 -151 -74 -190 24
-45 108 -27 137 30 22 44 54 78 83 89 34 14 114 -12 190 -61 35 -23 65 -39 68
-36 10 9 -29 67 -78 115 -83 82 -183 116 -260 88z"/>
<path d="M1725 3574 c-60 -30 -170 -162 -152 -180 3 -4 31 12 63 35 93 67 149
67 179 0 28 -61 61 -89 106 -89 69 0 83 52 38 140 -47 94 -152 137 -234 94z"/>
<path d="M2915 3248 c-78 -28 -135 -106 -135 -183 0 -21 9 -57 20 -79 54 -111
224 -128 309 -30 101 114 30 288 -122 300 -23 2 -55 -1 -72 -8z m147 -85 c27
-24 23 -69 -8 -89 -24 -16 -27 -16 -52 3 -33 24 -39 58 -16 84 21 23 51 24 76
2z"/>
<path d="M1650 3228 c-105 -72 -99 -249 11 -306 73 -39 139 -20 196 54 23 31
28 49 31 109 4 66 2 74 -24 104 -53 63 -152 81 -214 39z m202 -45 c10 -9 18
-29 18 -44 0 -22 -6 -30 -25 -35 -35 -9 -53 1 -61 32 -6 21 -2 31 16 46 27 22
29 22 52 1z"/>
<path d="M2115 3023 c-168 -37 -245 -163 -181 -298 36 -78 89 -115 186 -127
25 -3 24 -4 -18 -50 -109 -118 -226 -95 -307 60 -24 46 -24 46 -26 17 -7 -149
90 -275 213 -275 12 0 19 -12 24 -47 9 -67 41 -148 71 -184 58 -69 190 -98
291 -65 60 20 123 83 142 142 36 112 138 289 227 393 l30 35 18 -47 c12 -33
23 -47 36 -47 16 0 19 8 21 48 3 87 -11 135 -42 152 -15 8 -34 -6 -103 -75
-108 -109 -200 -156 -305 -157 -68 0 -130 18 -164 49 -25 22 -24 70 2 78 59
19 131 113 156 203 31 111 -1 174 -97 193 -46 9 -140 10 -174 2z m177 -88 c10
-22 9 -29 -9 -47 -17 -17 -37 -21 -112 -26 -91 -5 -121 3 -121 32 0 42 53 62
173 65 52 1 58 -1 69 -24z m-68 -516 c-32 -4 -86 -7 -119 -7 -50 -1 -57 1 -41
11 10 7 37 26 60 42 l40 31 60 -36 60 -35 -60 -6z m236 -164 c-27 -72 -51
-104 -93 -124 -48 -23 -127 -37 -153 -27 -15 6 -15 8 -2 24 8 9 25 39 38 65
31 67 67 87 152 87 l68 0 -10 -25z"/>
<path d="M945 1920 c-9 -14 13 -40 42 -51 13 -5 23 -14 23 -21 0 -8 30 -40 66
-73 36 -33 73 -68 82 -78 79 -88 206 -206 294 -274 270 -210 700 -423 999
-494 l93 -22 109 26 c268 66 626 239 942 455 124 84 295 218 295 231 0 4 11
13 25 19 13 6 31 25 40 42 8 16 21 30 29 30 15 0 56 42 56 58 0 6 10 17 23 23
28 16 46 39 47 62 0 19 -15 23 -25 7 -7 -11 -261 -215 -335 -268 -25 -18 -65
-47 -90 -66 -211 -154 -601 -369 -840 -461 -124 -48 -134 -51 -207 -71 -60
-16 -65 -16 -145 6 -110 29 -278 92 -396 146 -267 124 -486 270 -792 529 -111
94 -213 177 -228 185 -15 8 -39 28 -54 43 -29 29 -43 33 -53 17z"/>
<path d="M2462 678 c-22 -28 -42 -79 -42 -106 0 -35 43 -79 87 -88 58 -12 133
45 133 101 0 8 -19 36 -41 60 -37 40 -47 45 -84 45 -23 0 -47 -6 -53 -12z"/>
</g>
</svg>
