<svg xmlns="http://www.w3.org/2000/svg" viewBox="0 0 230.84 130.11"><path d="M75.49,4A10.44,10.44,0,1,0,85.93,14.49,10.43,10.43,0,0,0,75.49,4Zm-28,29.24V46.92H66.27V93H73V66.82h4.9V93h6.83V33.28H47.53Zm88.3,5.15h-.21c-2.76-4-8.29-6.75-15.76-6.75-14.32,0-26.9,11.77-26.8,31.92,0,18.62,11.36,30.79,25.58,30.79,7.67,0,15-3.47,18.61-10L138.38,93h16.05V5.37h-18.6Zm0,27.93a30.87,30.87,0,0,1-.31,4.3,11.09,11.09,0,0,1-11,8.9c-7.67,0-12.68-6.34-12.68-16.57,0-9.41,4.29-17,12.78-17,5.83,0,9.83,4.2,10.95,9.11a19.13,19.13,0,0,1,.21,3.38Z" fill="#febd3e"/><path d="M21.64,107.12h5l10.89,22.44h-4.6l-2.34-5.16h-13l-2.38,5.16H10.59Zm7.19,13.52-4.69-10-4.69,10Zm14.69-13.52h4.41v18.55H64.2v3.89H43.52Zm27.1,0H75v18.55H91.26v3.89H70.62Zm27.38,0h4.38v22.44H98Zm21.69,0h5l10.89,22.44h-4.65l-2.34-5.16H115.68l-2.38,5.16h-4.66Zm7.24,13.52-4.69-10-4.69,10Zm14.64-13.52h4.63l15,16.2v-16.2h4.2v22.44h-4l-15.63-16.8v16.8h-4.2Zm55.19,14.45c-.44,2.49-2.23,8.54-12.53,8.54-7.1,0-12.69-4-12.69-12.13,0-6.54,4.11-11.41,13-11.41,10,0,11.51,6.51,11.85,7.71H192c-.24-.77-2-4-7.22-4-6.2,0-8.79,3.49-8.79,8.15,0,5.15,3.73,7.87,8.55,7.87,5.12,0,7.37-3.06,7.8-4.78Zm6.33-14.45h20.12v3.77H207.47v5.21H221v3.77H207.47v5.89h16.11v3.77H203.09ZM46.19,17.28,50.76,1.89a29.07,29.07,0,0,0-3.88-1,36.09,36.09,0,0,0-18.14.57h0a19.78,19.78,0,0,0-3.55,1.42h0a25,25,0,0,0-6.37,4.57c-4.81,4.71-7.25,11.11-7.25,19v6.81H0V46.9H11.53V93H30V46.9H41.54V33.28H30V26.07a9.85,9.85,0,0,1,2.2-6.84,7,7,0,0,1,.62-.6h0S36.81,14.69,46.19,17.28ZM195.31,31.69c-19.33,0-32,12.37-32,31.81s13.4,30.89,30.9,30.89c16,0,31.51-10,31.51-32C225.7,44.37,213.53,31.69,195.31,31.69ZM194.7,81c-8,0-12.27-7.67-12.27-18,0-8.8,3.47-17.9,12.27-17.9,8.38,0,11.87,9,11.87,17.8,0,10.94-4.64,18.1-11.87,18.1Zm21.65-55.33h2.23v5.67h1.35V25.66h2.22V24.53h-5.8Zm12.56-1.13-1.75,4.86-1.74-4.86h-1.95v6.8h1.25V25.84l1.9,5.49h1.09l1.88-5.49v5.49h1.25v-6.8Z" fill="#231f20"/></svg>