<?xml version="1.0" encoding="UTF-8" standalone="no"?>
<!-- Created with Inkscape (http://www.inkscape.org/) -->

<svg
   width="443.28357mm"
   height="279.26865mm"
   viewBox="0 0 443.28356 279.26865"
   version="1.1"
   id="svg5"
   xml:space="preserve"
   inkscape:version="1.2 (dc2aedaf03, 2022-05-15)"
   sodipodi:docname="sso.svg"
   xmlns:inkscape="http://www.inkscape.org/namespaces/inkscape"
   xmlns:sodipodi="http://sodipodi.sourceforge.net/DTD/sodipodi-0.dtd"
   xmlns="http://www.w3.org/2000/svg"
   xmlns:svg="http://www.w3.org/2000/svg"><sodipodi:namedview
     id="namedview7"
     pagecolor="#ffffff"
     bordercolor="#000000"
     borderopacity="0.25"
     inkscape:showpageshadow="2"
     inkscape:pageopacity="0.0"
     inkscape:pagecheckerboard="0"
     inkscape:deskcolor="#d1d1d1"
     inkscape:document-units="mm"
     showgrid="false"
     inkscape:zoom="0.3581229"
     inkscape:cx="1079.2384"
     inkscape:cy="437.00082"
     inkscape:window-width="1920"
     inkscape:window-height="991"
     inkscape:window-x="-9"
     inkscape:window-y="-9"
     inkscape:window-maximized="1"
     inkscape:current-layer="layer1" /><defs
     id="defs2" /><g
     inkscape:label="Calque 1"
     inkscape:groupmode="layer"
     id="layer1"
     transform="translate(214.63822,17.361198)"><ellipse
       style="fill:#b3b3b3;stroke-width:0.264583"
       id="path2538"
       cx="7.0035672"
       cy="229.76939"
       rx="221.64178"
       ry="32.138058" /><ellipse
       style="fill:#666666;stroke-width:0.264583"
       id="path2855"
       cx="-72.787476"
       cy="217.57909"
       rx="65.014923"
       ry="13.298507" /><ellipse
       style="fill:#666666;stroke-width:0.337868"
       id="path2855-3"
       cx="88.641632"
       cy="216.84029"
       rx="106.01865"
       ry="13.298507" /><g
       transform="matrix(0,0.03527778,-0.03527778,0,336.36941,96.070077)"
       fill="#000000"
       stroke="none"
       id="g30"
       inkscape:label="Key"><g
         id="g1536"
         transform="translate(-3598.9786,2091.6226)"><rect
           style="fill:#ffff00;stroke-width:8.02387"
           id="rect1526"
           width="902.35266"
           height="2925.5222"
           x="5100.6675"
           y="-5309.896"
           transform="scale(1,-1)" /><rect
           style="fill:#ffff00;stroke-width:7.5"
           id="rect1528"
           width="1329.7828"
           height="1472.2596"
           x="5898.5371"
           y="-4265.0669"
           transform="scale(1,-1)" /><rect
           style="fill:#ffff00;stroke-width:7.5"
           id="rect1530"
           width="693.38684"
           height="940.3465"
           x="5414.1162"
           y="-3049.2654"
           transform="scale(1,-1)" /><ellipse
           style="fill:#ffff00;stroke-width:11.2636"
           id="path1524"
           cx="5452.1099"
           cy="-6915.1343"
           transform="scale(1,-1)"
           rx="1690.724"
           ry="1776.2101" /></g><path
         d="m 1584.0214,10785.622 c -363,-52 -743.00005,-252 -1026.00005,-538 -184,-186 -323,-398.9994 -429,-655.9994 -96,-231 -129.9999995,-408 -128.9999995,-671 0,-292 42.9999995,-484 159.9999995,-724 131,-267 309,-476 571,-671 160,-118 271.00005,-176 494.00005,-255 60,-21 110,-40 112,-41 1,-2 4,-626 6,-1388 3,-1291 4,-1387 20,-1417 23,-41 74,-59 123,-43 22.8428,7.6143 37.8345,0.5329 47.6896,38.5044 6.5523,25.246 10.8339,70.4076 13.6427,153.045 6.2823,184.8345 5.1959,557.153 5.6677,1313.4506 v 1446 l -26,38 c -30,43 -52,54 -216,110 -63,21 -135,47 -160,57 -79,32 -272.00005,144 -349.00005,202 -230,175 -415,433 -509,707 -104,303 -92,744 27,1043 203,506.9999 543,835.9994 1041.00005,1006.9994 186,63 304,79 545,72 321,-10 506,-62 780,-220 130,-74 365,-282 450,-396.9994 57,-76 166,-270 200,-353 65,-160 115,-422 115,-597 0,-246 -83,-557 -202,-752 -76,-125 -154,-224 -268,-338 -143,-144 -291,-242 -496,-328 -105,-45 -159,-86 -172,-131 -4,-14 -7,-258 -7,-541 v -515 l 24,-38 c 13,-21 35,-43 48,-48 13,-5 151,-9 306,-9 155,0 407,-3 559,-7 l 277,-6 -2,-626 -2,-626 -538,-5 -538,-5 -19,-25 c -28,-37 -32,-93 -28,-441 l 3,-316 -134,-7 c -74,-3 -172,-6 -218,-6 h -83 v 1381 c 0,1536 5,1433 -66,1467 -28,13 -40,13 -74,3 -82,-24 -75,117 -75,-1532 v -980.6418 -100.7463 -67.1641 -319.4478 l 21,-28 c 39,-53 47,-54 346,-43 276,10 388,25 435,56 14,8 33,34 44,57 17,38 19,70 19,367 v 325 l 512,-3 c 475,-2 516,-1 548,15 65,33 63,0 61,822 l -2,746 -22,45 c -38,78 -11,75 -640,78 l -557,2 v 407 c 1,408 3,433 36,433 29,0 305,156 394,223 292,220 526,540 638,872 52,154 69,238 83,420 25,311 -28,612 -156,880 -53,110 -152,270.9994 -214,344.9994 -77,93 -237,245 -341,324 -253,191 -565,322 -859,361 -138,18 -382,18 -508,-1 z"
         id="path20" /><path
         d="m 1784.0214,10046.622 c -60,-26 -64,-130.9994 -7,-187.9994 28,-29 35,-31 200,-52 256,-32 410,-141 524,-369 81,-161 118,-350 106,-546 -7,-137 -27,-214 -82,-329 -38,-78 -60,-109 -132,-181 -99,-99 -171,-143 -307,-188 -178,-59 -279,-64 -485,-23 -187,37 -386,154 -494,290 -73,91 -99,140 -136.00005,256 -30,95 -32,106 -28,225 4,109 9,137 37.00003,220 49.00002,140 102.00002,244 184.00002,356 87,118 158,184 289,270 103,67 128,98 128,158 0,25.9999 -7,39.9999 -27,55.9994 -55,44 -171,13 -289,-76.9994 -242,-183 -396.00005,-404 -488.00005,-701 -116,-371 -36,-699 238.00005,-975 173,-174 357,-264 641,-314 287,-50 651,60 861,259 282,268 374,657 268,1123 -24,102 -130,316 -198,395 -165,194 -317,275.9999 -602,324.9994 -168,29 -159,28 -201,10 z"
         id="path22" /><path
         d="m 2516.0214,6100.6226 c -75,-18 -122,-96 -94,-154 30,-60 42,-63 314,-75 138,-6 274,-13 303,-16 l 53,-6 -3,-106 -3,-107 -210,1 c -127,1 -227,6 -252,13 -77,21 -152,-15 -168,-81 -9,-37 28,-114 65,-133 21,-11 96,-14 363,-16 321,-3 337,-2 358,17 55,50 71,147 60,379 -9,189 -18,215 -83,238 -26,10 -97,18 -178,22 -131,5 -378,21 -450,29 -19,2 -53,0 -75,-5 z"
         id="path24" /><path
         d="m 2499.0214,5351.6226 c -31,-24 -53,-89 -43,-129 4,-14 16,-36 27,-48 21,-22 28,-23 187,-23 178,0 238,9 258,36 17,24 16,88 -1,123 -25,47 -56,55 -236,59 -157,3 -167,2 -192,-18 z"
         id="path26" /><path
         d="m 3006.0214,5359.6226 c -46,-25 -53,-50 -34,-137 9,-45 14,-51 45,-61 47,-16 119,-4 144,23 23,23 28,104 9,139 -21,40 -118,61 -164,36 z"
         id="path28" /></g><g
       id="g2047"
       transform="matrix(0.35277778,0,0,0.35277778,-184.445,-17.361192)"
       inkscape:label="Dog"><path
         id="rect1240-5"
         style="display:inline;fill:#ffffff;stroke-width:0.725584"
         d="m 0.45082083,390.41914 c -0.30054722,-260.27943 -0.15027361,-130.13971 0,0 z M 36.755508,264.26826 c -4.602686,19.74649 -6.403772,39.65695 -4.873535,58.0708 3.199997,37.69997 11.700213,64.20052 29.200195,91.00049 28.099971,43.09996 74.014682,76.11883 136.814622,99.2188 22.19998,8.09999 54.80022,18.54697 80.2002,21.74697 15.79998,2.1 66.99923,2.1185 82.69921,-0.0815 35.39997,-5 91.63374,-22.04548 120.83371,-38.24547 5.7,-3.19999 14.01385,-7.51771 17.01385,-9.11771 18.59998,-10.39999 50.27177,-33.75594 68.67175,-55.15592 27.89997,-32.59996 32.66656,-75.06562 32.66656,-121.76557 0,-15.55979 -2.26983,-30.54772 -5.78613,-45.6709 z m 580.416502,0 c 4.87313,24.10603 7.0621,48.46806 3.81006,73.67139 -1.1,8.59999 -2.3001,16 -2.6001,16.5 -0.3,0.5 1.1,3.5002 3,6.70019 6.39999,10.29999 7.89951,18.60022 7.99951,42.7002 -4.85845,14.2568 -24.62244,-15.22289 -7.39892,57.19922 -11.49999,46.49995 -34.09994,85.60091 -70.89991,122.40088 -25.89997,25.79997 -45.90061,40.19972 -78.60058,56.6997 -46.82829,-20.18681 -134.16988,-102.045 -72,24.3003 -5.8469,1.00232 -10.89173,1.33485 -15.88037,1.49267 C 676.56158,566.08952 622.91921,290.38548 617.17201,264.26826 Z M 21.582657,385.63936 c -0.799999,-0.8 -0.600097,15.99962 0.399902,27.09961 0.599999,6.49999 2.399025,19.3004 3.999024,28.40039 7.399992,41.19995 20.200609,70.89993 44.100586,102.3999 12.59999,16.59998 35.599621,38.30109 54.099601,51.10107 12.49999,8.59999 15.90315,7.14872 12.40316,1.74872 -3.8,-6.09999 -3.45038,-6.22267 0.24961,-9.02267 2.2,-1.8 -0.55218,-4.12741 2.94782,-3.62741 6.29999,0.89999 9.99903,3.20127 12.99902,8.30127 8.3,13.89998 16.8005,25.69892 20.50049,28.39892 10.89999,7.89999 38.42525,21.70217 56.52524,25.10217 9.89999,1.9 26.31583,3.79445 30.91583,1.89445 10.59998,-4.39999 20.90354,-14.9515 21.60354,-25.05149 0.6,-8.49999 -4.02692,-19.22851 -13.12691,-32.8285 -13.59999,-20.39998 -34.6025,-36.69813 -44.00249,-42.69812 -5.99999,-3.8 -21.00011,-10.4001 -37.10009,-16.1001 C 155.99702,519.15758 119.78136,500.13983 97.281389,482.63984 85.581399,473.53985 67.682349,456.13905 57.282364,443.83906 45.682375,430.13908 38.181476,418.53963 29.381485,400.93965 25.281489,392.73966 21.782657,385.83936 21.582657,385.63936 Z m 587.099113,4.00048 c -0.19999,-0.2 -0.89961,1.59942 -1.5996,3.89942 -1.8,6.09999 -11.19991,23.70079 -18.39991,34.30078 -16.49998,24.69997 -41.29983,49.20031 -66.7998,66.30029 -22.69998,15.19999 -47.99973,28.29864 -71.69971,37.09864 -22.19998,8.29999 -42.50108,15.10107 -45.10107,15.10107 -1.2,0 -3.39991,1.29932 -4.89991,2.79932 -1.49999,1.59999 -5.68489,6.01802 -10.68488,9.41802 -10.19999,6.79999 -17.60088,13.8001 -20.40088,19.10009 -1,1.9 -4.4,6.00001 -7.5,9 -21.69998,20.99998 -26.41403,37.5818 -11.71404,49.88179 9.49999,7.99999 30.14874,11.40167 56.94872,4.60168 12.99998,-3.4 20.85207,-8.101 31.35206,-13.401 8.79999,-4.49999 32.26597,-14.4209 41.26596,-27.32089 4.99999,-7.09999 1.29614,-11.17713 4.79613,-12.47713 4,-1.4 3.13752,-4.90286 6.53752,-3.10286 5.6,3 6.30039,6.5002 2.90039,12.7002 -3.4,5.99999 0.57685,10.85316 10.97684,3.85317 22.18978,-8.6599 37.01229,-35.27794 55.01227,-57.87792 18.59999,-23.39997 42.43609,-56.82671 49.63608,-84.92669 4.09999,-16.09998 7.54429,-46.89347 8.54429,-60.49345 0.5,-8.19999 -8.97046,-8.25453 -9.17046,-8.45453 z M 236.87953,665.93281 c -20.56584,-1.47907 -44.02851,-7.89543 -69.19776,-19.09277 -151.494188,-127.57937 -42.64954,-9.89084 69.19776,19.09277 z m 30.01726,-113.87495 c 0,-1.14018 0.99952,3.2005 4.99951,8.50049 15.09999,20.09998 21.4002,33.99953 23.2002,51.49951 1,9.49999 0.10048,19.70011 -1.99951,23.6001 -0.7,1.2 -2.71406,6.99039 -2.21406,7.39039 1.3,1.4 24.26873,-1.81429 27.41376,-0.3899 l 7.49953,3.39654 5.69315,-6.88456 c -5.59999,-8.29999 -14.49267,-21.81219 -8.69268,-36.21218 5.8,-14.69998 12.99963,-24.19991 30.09961,-39.3999 5.6,-5.09999 10.19971,-9.50088 10.19971,-9.90088 0,-0.4 -2.4002,-0.29931 -5.2002,0.20069 -7.99999,1.4 -64.49933,1.30039 -77.79931,-0.0996 -6.3,-0.7 -13.19971,-0.75201 -13.19971,-1.70069 z m 10.18538,109.68111 c 10.41426,-12.74485 -6.55883,-9.59141 -10.65883,-7.59141 -6.41907,3.20954 -18.68737,12.27261 -28.28112,11.78525 62.81964,-17.85526 93.75489,0 140.63233,0 -4.88437,-0.17201 -9.65483,-0.53863 -14.59278,-1.59375 -4.99999,-1.1 -9.8,-1.7 -10.5,-1.5 -0.59999,-3.06465 -8.4002,-1.35148 -17.20019,-0.75148 -17.99998,1.1 -43.80121,-7.21743 -59.39941,-0.34861 z"
         sodipodi:nodetypes="cccccccccccsccccsccccccccsccccccsccccccccscsssccccscccscccccccccccscccsccccsccccsccsscccccccc"
         inkscape:label="white" /><g
         id="layer1-3"
         inkscape:label="Background"
         style="display:inline"><path
           style="fill:#ff8434;fill-opacity:1;stroke-width:0.75"
           d="M 28.818999,345.82798 C 115.10373,322.14345 172.1998,333.12226 211.21025,364.05839 263.80888,253.92565 370.62513,257.05788 420.58824,360.98356 495.99744,330.69765 511.47167,330.26854 607.41845,364.2769 601.94261,307.2393 602.28636,215.46292 556.56691,163.90805 432.16346,23.626336 145.24886,13.199357 66.643934,189.12468 l -37.824935,84.65581 z"
           id="path371"
           sodipodi:nodetypes="ccccsscc"
           inkscape:label="head" /><path
           style="fill:#ff6600;stroke-width:0.75"
           d="M 68.975894,188.76129 C 147.82018,152.1988 161.82467,111.58805 205.05472,68.885381 L 50.945274,14.00995 35.024875,33.114428 Z"
           id="path1019"
           inkscape:label="leftear"
           sodipodi:nodetypes="ccccc" /><path
           style="fill:#ff6600;stroke-width:0.75"
           d="M 425.08023,75.649872 560.16929,14.409499 597.09363,40.526717 566.47345,195.42883 C 518.4159,160.91651 479.84231,145.88427 425.08023,75.649872 Z"
           id="path1160"
           inkscape:label="rightear"
           sodipodi:nodetypes="ccccc" /><path
           style="display:inline;opacity:0.67;fill:#d45500;stroke-width:0.75"
           d="M 252.0934,515.02703 C 124.27791,331.69302 110.55492,346.71858 122.4079,177.30439 L 61.167532,46.718301 76.477632,184.50915 C 12.383772,331.13491 57.183072,501.35479 252.0934,515.02703 Z"
           id="path1179-1"
           sodipodi:nodetypes="ccccc"
           inkscape:label="shadoworange" /><path
           id="path1512"
           style="display:inline;opacity:1;fill:#cccccc;stroke-width:0.75"
           d="m 131.81543,333.56543 c -46.010555,1.04553 -69.647702,3.66828 -80.589844,6.88184 C 62.711625,431.71548 125.90941,506.28374 252.16553,515.14014 184.29627,417.79088 148.59919,376.36916 131.81543,333.56543 Z"
           inkscape:label="shadowgray" /></g><g
         id="g972"
         inkscape:label="border"
         style="display:inline"
         transform="matrix(0.1,0,0,-0.1,-192.667,846.8463)"><path
           d="m 2438,8454 c -80,-19 -126,-45 -179,-101 -88,-92 -122,-184 -122,-328 1,-67 14,-157 51,-350 28,-143 72,-368 97,-500 25,-132 59,-298 75,-369 17,-72 30,-141 30,-155 0,-13 -27,-72 -59,-130 -273,-486 -364,-964 -286,-1504 16,-105 16,-120 2,-135 -23,-26 -65,-125 -87,-205 -28,-96 -37,-304 -21,-462 15,-142 71,-429 105,-536 95,-294 239,-564 443,-831 158,-206 469,-483 694,-619 45,-27 86,-53 93,-58 28,-22 229,-125 343,-176 254,-113 491,-178 698,-192 100,-6 175,6 241,39 41,20 43,20 155,4 183,-27 414,-37 594,-26 226.8152,27.4918 440.4221,-34.1998 640,-1 245,43 481,122 720,243 327,165 527,309 786,567 368,368 594,759 709,1224 65,268 74,336 74,572 -1,241 -16,324 -80,427 -19,32 -33,62 -30,67 3,5 15,79 26,165 44,341 14,669 -91,992 -49,151 -150,367 -242,518 -28,45 -34,63 -27,77 6,10 22,80 36,156 14,76 43,233 65,348 84,448 133,800 127,909 -10,188 -139,342 -316,377 -142,27 -273,-13 -732,-224 -50,-23 -268,-117 -384,-167 -141,-59 -316,-148 -316,-160 0,-7 -6,-7 -18,-1 -48,26 -455,125 -637,155 -252,42 -759,54 -970,23 -191,-28 -405,-75 -553,-122 l -143,-46 -72,34 c -40,19 -106,48 -147,65 -41,17 -122,51 -180,75 -603,256 -809,339 -896,362 -70,18 -139,18 -216,-1 z m 238,-258 c 121,-41 491,-196 876,-367 86,-38 161,-69 165,-69 5,0 38,-17 74,-39 111,-64 119,-65 218,-31 142,48 348,99 538,132 158,27 207,31 432,35 439,9 755,-37 1159,-168 l 122,-40 103,55 c 56,30 158,79 227,109 128,56 383,171 545,247 143,66 332,140 389,152 79,17 135,-2 190,-63 84,-94 84,-92 46,-339 -37,-243 -64,-400 -143,-815 -81,-424 -83,-364 13,-535 121,-217 164,-314 219,-495 62,-202 91,-396 91,-601 0,-467 -140,-863 -419,-1189 -184,-214 -445,-438 -631,-542 -30,-16 -102,-56 -159,-88 -292,-162 -840,-342 -1194,-392 -157,-22 -669,-25 -827,-4 -254,32 -580,111 -802,192 -628,231 -1076,558 -1357,989 -175,268 -260,533 -292,910 -30,361 65,780 257,1130 31,58 74,137 95,175 l 37,70 -18,75 c -18,70 -58,253 -130,590 -17,80 -41,204 -55,275 -13,72 -40,206 -59,299 l -34,168 29,58 c 34,66 59,92 115,120 52,26 96,25 180,-4 z M 2234,4454 c 88,-176 163,-292 279,-429 104,-123 283,-297 400,-388 225,-175 576,-362 897,-478 161,-57 311,-123 371,-161 94,-60 259,-250 395,-454 91,-136 117,-205 111,-290 -7,-101 -65,-175 -171,-219 -46,-19 -172,-19 -271,0 -181,34 -463,145 -572,224 -37,27 -122,145 -205,284 -30,51 -67,74 -130,83 -35,5 -48,2 -70,-16 -37,-28 -36,-63 2,-124 35,-54 37,-55 -88,31 -185,128 -415,345 -541,511 -239,315 -367,612 -441,1024 -16,91 -34,219 -40,284 -10,111 -12,279 -4,271 2,-2 37,-71 78,-153 z m 5786,-40 c -10,-136 -54,-393 -95,-554 -72,-281 -228,-591 -414,-825 -180,-226 -371,-410 -558,-536 -104,-70 -110,-71 -76,-11 34,62 27,97 -29,127 -34,18 -40,19 -80,5 -35,-13 -52,-29 -102,-100 -90,-129 -256,-289 -344,-334 -105,-53 -161,-73 -291,-107 -268,-68 -497,-61 -592,19 -147,123 -111,292 106,502 31,30 65,71 75,90 28,53 102,123 204,191 50,34 103,75 118,91 15,15 37,28 49,28 26,0 229,68 451,151 237,88 490,219 717,371 255,171 503,416 668,663 72,106 166,282 184,343 7,23 14,41 16,39 2,-2 -2,-71 -7,-153 z M 4730,2929 c 133,-14 698,-15 778,-1 28,5 52,6 52,2 0,-4 -46,-48 -102,-99 -171,-152 -243,-247 -301,-394 -58,-144 -58,-278 -2,-361 l 24,-36 h -67 c -73,0 -242,26 -255,40 -5,4 -4,18 3,30 21,39 30,141 20,236 -18,175 -81,314 -232,515 -40,53 -61,88 -50,85 9,-3 69,-10 132,-17 z"
           id="path198"
           sodipodi:nodetypes="ccccscsccccccccccccccccccccsccccscccccsccccccscccccscccccccccccccccscccccccccccccccccscscsccccccccsccccccsscccccccccccscccsccccscccsccccscccccc"
           inkscape:label="dogborder" /><path
           d="m 7233,7705 c -24,-17 -107,-132 -192,-265 -79,-124 -109,-180 -116,-222 -7,-38 -7,-38 26,-38 46,-1 65,-13 171,-111 126,-117 210,-189 230,-200 18,-10 -128,178 -185,238 l -30,32 46,88 c 44,86 118,252 156,354 23,59 17,85 -25,118 -32,25 -52,26 -81,6 z"
           id="path200"
           inkscape:label="innereyeright" /><path
           d="m 2842,7687 c -31,-33 -28,-59 24,-177 25,-58 66,-154 90,-215 25,-60 56,-120 69,-132 l 24,-21 -22,-15 c -25,-16 -178,-196 -211,-248 l -21,-34 30,22 c 17,11 79,67 139,123 136,127 200,171 261,177 25,3 45,7 45,10 0,28 -260,452 -313,511 -28,31 -86,30 -115,-1 z"
           id="path202"
           inkscape:label="innereyeleft" /><g
           id="g1776"
           inkscape:label="eyeleft"><path
             id="rect1767"
             style="fill:#ffffff;stroke-width:7.5"
             d="m 3924.2335,-6038.6534 c -13.3906,-0.1563 -27.5401,2.2744 -41.3526,6.8994 -13.8124,4.625 -27.2861,11.4453 -39.3017,20.039 -6.0078,4.2969 -11.6592,9.0284 -16.8018,14.1651 -5.1426,5.1367 -9.7842,10.6777 -13.7842,16.5527 -7.25,10.75 -12.6787,21.6787 -16.3037,32.71 -3.625,11.0312 -5.4345,22.1562 -5.4345,33.2812 0,11.125 1.8095,22.25 5.4345,33.2813 3.625,11.0312 9.0537,21.9746 16.3037,32.7246 5.5,8.25 11.3399,15.5889 17.4317,22.0166 6.0918,6.4277 12.4443,11.9375 18.999,16.5234 6.5547,4.586 13.3115,8.2471 20.2002,10.9717 6.8887,2.7246 13.9121,4.5176 21.0059,5.3613 7.0937,0.8438 14.2461,0.7491 21.416,-0.3076 7.1699,-1.0566 14.3574,-3.0732 21.4746,-6.0498 7.1172,-2.9765 14.1728,-6.9199 21.1084,-11.8359 6.9355,-4.916 13.751,-10.8057 20.376,-17.6807 6.375,-6.625 11.8261,-14.2393 16.3769,-22.5439 4.5508,-8.3047 8.1914,-17.2979 10.957,-26.7041 2.7657,-9.4063 4.6495,-19.2207 5.669,-29.1504 1.0195,-9.9297 1.1855,-19.9785 0.498,-29.8535 -0.6875,-9.875 -2.2295,-19.5713 -4.5849,-28.8135 -2.3555,-9.2422 -5.5371,-18.0283 -9.5215,-26.0596 -3.9844,-8.0312 -8.7666,-15.3057 -14.3408,-21.5478 -5.5742,-6.2422 -11.9327,-11.4473 -19.0576,-15.3223 -5.375,-2.875 -11.2139,-5.0049 -17.3877,-6.4307 -6.1739,-1.4257 -12.6846,-2.1484 -19.3799,-2.2265 z"
             transform="scale(1,-1)" /><path
             id="path1771"
             style="fill:#000000;stroke-width:7.5"
             d="m 3920.1319,-6149.63 c -18.0625,-1.1875 -35.9766,-0.4072 -53.5547,2.3584 -17.5781,2.7656 -34.8271,7.5176 -51.5771,14.2676 -11,4.5 -25.7452,12.2549 -40.6201,21.2549 -14.875,9 -29.8819,19.2549 -41.3819,28.7549 -7.75,6.2499 -14.8672,12.747 -21.416,19.6435 -6.5488,6.8965 -12.5283,14.1807 -17.9736,22.0166 -5.4453,7.8359 -10.3555,16.2149 -14.7949,25.2832 -4.4395,9.0684 -8.4073,18.835 -11.9385,29.4287 -7.0625,21.1875 -12.4053,45.7188 -16.4209,74.7656 -4.0156,29.0469 -6.7022,62.6007 -8.4522,101.8506 -1.25,34.25 -1.2988,66.4473 -0.1172,96.6211 1.1817,30.1738 3.587,58.3262 7.251,84.5215 3.6641,26.1953 8.583,50.4297 14.7803,72.7442 6.1973,22.3144 13.6748,42.7138 22.456,61.2451 8.7813,18.5312 18.877,35.1933 30.293,50.039 11.416,14.8457 24.1602,27.8682 38.2617,39.126 14.1016,11.2578 29.5538,20.7529 46.3916,28.5205 16.8379,7.7676 35.0577,13.8184 54.6827,18.1934 21.9999,5 38.4941,7.4922 53.9941,7.6172 15.5,0.125 30.0029,-2.1211 48.0029,-6.6211 13.25,-3.5 27.1299,-8.6817 40.9424,-15.0879 13.8125,-6.4063 27.5615,-14.0371 40.5615,-22.4121 13,-8.375 25.252,-17.503 36.0645,-26.9092 10.8125,-9.4063 20.1865,-19.0938 27.4365,-28.5938 8.75,-11.75 16.749,-27.3076 23.9209,-46.2451 7.1719,-18.9375 13.5176,-41.2539 18.9551,-66.5039 5.4375,-25.25 9.959,-53.4385 13.5058,-84.126 3.5469,-30.6874 6.1172,-63.876 7.6172,-99.1259 1.25,-28.125 1.8252,-54.1319 1.6553,-78.2373 -0.1699,-24.1055 -1.085,-46.3126 -2.8271,-66.7969 -1.7422,-20.4844 -4.3116,-39.252 -7.7784,-56.5137 -3.4668,-17.2617 -7.8398,-33.0088 -13.1836,-47.4463 -5.3437,-14.4375 -11.6552,-27.5684 -19.0283,-39.5801 -7.373,-12.0117 -15.8017,-22.9013 -25.3564,-32.8857 -9.5547,-9.9844 -20.2354,-19.0664 -32.124,-27.4219 -11.8887,-8.3554 -24.9854,-15.9902 -39.3604,-23.1152 -18,-9 -36.1865,-16.0576 -54.3896,-21.167 -18.2032,-5.1094 -36.4151,-8.2754 -54.4776,-9.4629 z m 4.1016,110.9766 c 6.6953,0.078 13.206,0.8008 19.3799,2.2265 6.1738,1.4258 12.0127,3.5557 17.3877,6.4307 7.1249,3.875 13.4834,9.0801 19.0576,15.3223 5.5742,6.2421 10.3564,13.5166 14.3408,21.5478 3.9844,8.0313 7.166,16.8174 9.5215,26.0596 2.3554,9.2422 3.8974,18.9385 4.5849,28.8135 0.6875,9.875 0.5215,19.9238 -0.498,29.8535 -1.0195,9.9297 -2.9033,19.7441 -5.669,29.1504 -2.7656,9.4062 -6.4062,18.3994 -10.957,26.7041 -4.5508,8.3046 -10.0019,15.9189 -16.3769,22.5439 -6.625,6.875 -13.4405,12.7647 -20.376,17.6807 -6.9356,4.916 -13.9912,8.8594 -21.1084,11.8359 -7.1172,2.9766 -14.3047,4.9932 -21.4746,6.0498 -7.1699,1.0567 -14.3223,1.1514 -21.416,0.3076 -7.0938,-0.8437 -14.1172,-2.6367 -21.0059,-5.3613 -6.8887,-2.7246 -13.6455,-6.3857 -20.2002,-10.9717 -6.5547,-4.5859 -12.9072,-10.0957 -18.999,-16.5234 -6.0918,-6.4277 -11.9317,-13.7666 -17.4317,-22.0166 -7.25,-10.75 -12.6787,-21.6934 -16.3037,-32.7246 -3.625,-11.0313 -5.4345,-22.1563 -5.4345,-33.2813 0,-11.125 1.8095,-22.25 5.4345,-33.2812 3.625,-11.0313 9.0537,-21.96 16.3037,-32.71 4,-5.875 8.6416,-11.416 13.7842,-16.5527 5.1426,-5.1367 10.794,-9.8682 16.8018,-14.1651 12.0156,-8.5937 25.4893,-15.414 39.3017,-20.039 13.8125,-4.625 27.962,-7.0557 41.3526,-6.8994 z"
             transform="scale(1,-1)" /></g><g
           id="g1713"
           inkscape:label="eyeright"><path
             id="rect1692"
             style="fill:#ffffff;stroke-width:0.75"
             d="m 431.58253,243.95948 c -1.0375,0.0312 -2.07432,0.23974 -3.12744,0.62256 -1.05313,0.38281 -2.12266,0.93906 -3.22266,1.66406 -0.7875,0.5375 -1.49248,1.11582 -2.1167,1.72851 -0.62422,0.6127 -1.1666,1.25928 -1.62598,1.93506 -0.45937,0.67578 -0.83642,1.38116 -1.12939,2.10791 -0.29297,0.72676 -0.50195,1.47559 -0.62695,2.24121 -0.125,0.76563 -0.16612,1.54698 -0.12159,2.33936 0.0445,0.79238 0.17403,1.59531 0.38965,2.40234 0.21563,0.80703 0.517,1.61914 0.90528,2.42871 0.38828,0.80957 0.86426,1.617 1.42675,2.417 0.6,0.825 1.34268,1.57519 2.17237,2.22363 0.82968,0.64844 1.7457,1.19551 2.68945,1.61426 0.94375,0.41875 1.91572,0.70927 2.85791,0.84521 0.94219,0.13594 1.8542,0.11651 2.6792,-0.0835 1.3,-0.325 2.49102,-0.83721 3.5625,-1.49561 1.07148,-0.6584 2.02422,-1.46299 2.84766,-2.37158 0.82343,-0.90859 1.51836,-1.92149 2.07422,-2.99707 0.55585,-1.07559 0.97197,-2.2127 1.24072,-3.37207 0.26875,-1.15938 0.38945,-2.34102 0.35156,-3.50098 -0.0379,-1.15996 -0.23359,-2.29912 -0.59766,-3.37646 -0.36406,-1.07735 -0.8957,-2.09288 -1.60546,-3.0044 -0.70977,-0.91152 -1.59835,-1.71933 -2.67334,-2.38183 -1.1,-0.7 -2.16807,-1.21133 -3.2212,-1.54102 -1.05312,-0.32969 -2.0914,-0.47656 -3.1289,-0.44531 z"
             transform="matrix(9.9999998,0,0,-9.9999998,1926.67,8468.463)" /><path
             id="path1708"
             style="fill:#000000;stroke-width:0.75"
             d="m 426.90675,233.23975 c -1.79219,0.15 -3.42393,0.48135 -4.77393,1.00635 -1.65,0.6125 -3.15137,1.29541 -4.51172,2.06689 -1.36035,0.77149 -2.57988,1.63145 -3.66504,2.59864 -1.08515,0.96718 -2.03642,2.04209 -2.86084,3.2417 -0.82441,1.1996 -1.52099,2.52441 -2.09912,3.99316 -0.57812,1.46875 -1.03799,3.08135 -1.38428,4.85596 -0.34628,1.7746 -0.58007,3.71142 -0.70898,5.82861 -0.12891,2.11719 -0.15166,4.41465 -0.0776,6.91113 0.074,2.49648 0.2458,5.19102 0.5083,8.10352 0.35,3.79999 0.66778,6.93252 0.99903,9.59033 0.33125,2.65781 0.67519,4.84082 1.07519,6.74707 0.4,1.90625 0.85586,3.53477 1.41211,5.08008 0.55625,1.54531 1.2127,3.0085 2.0127,4.5835 0.6,1.18749 1.27295,2.29912 2.0083,3.33252 0.73535,1.03339 1.53379,1.98828 2.38769,2.85937 0.85391,0.87109 1.76309,1.65928 2.71875,2.35986 0.95567,0.70059 1.95792,1.31358 2.99854,1.83545 1.04062,0.52188 2.11973,0.95264 3.22851,1.2876 1.10879,0.33496 2.24708,0.57354 3.40723,0.71338 1.16016,0.13984 2.34141,0.18066 3.53613,0.11719 1.19473,-0.0635 2.40274,-0.23037 3.61524,-0.50537 2.55,-0.575 4.78193,-1.26954 6.76318,-2.14454 0.99063,-0.43749 1.91778,-0.92011 2.79199,-1.45605 0.87422,-0.53594 1.69473,-1.12539 2.46973,-1.77539 0.775,-0.65 1.5043,-1.36045 2.19727,-2.14014 0.69297,-0.77968 1.34941,-1.62822 1.97754,-2.55322 1.25625,-1.85 2.40097,-4.00674 3.50097,-6.53174 0.3875,-0.8625 0.73975,-1.97031 1.05616,-3.2666 0.3164,-1.29629 0.5958,-2.78106 0.83642,-4.39746 0.48125,-3.23281 0.80654,-6.99102 0.95654,-10.82227 0.15,-3.83124 0.125,-7.73555 -0.0937,-11.25586 -0.10937,-1.76015 -0.26748,-3.42461 -0.47607,-4.93652 -0.20859,-1.51191 -0.4668,-2.871 -0.7793,-4.021 -0.575,-2.12499 -1.31279,-4.11269 -2.19873,-5.95019 -0.88593,-1.8375 -1.9206,-3.52432 -3.08935,-5.04932 -1.16875,-1.525 -2.47159,-2.88769 -3.89502,-4.07519 -1.42344,-1.1875 -2.96719,-2.19991 -4.61719,-3.02491 -1.675,-0.825 -3.5502,-1.50674 -5.50488,-2.03173 -1.95469,-0.525 -3.98868,-0.89278 -5.98243,-1.09278 -1.99374,-0.2 -3.94707,-0.23203 -5.73925,-0.082 z m 4.67578,10.71973 c 1.0375,-0.0312 2.07578,0.11562 3.1289,0.44531 1.05313,0.32969 2.1212,0.84102 3.2212,1.54102 1.07499,0.6625 1.96357,1.47031 2.67334,2.38183 0.70976,0.91152 1.2414,1.92705 1.60546,3.0044 0.36407,1.07734 0.55977,2.2165 0.59766,3.37646 0.0379,1.15996 -0.0828,2.3416 -0.35156,3.50098 -0.26875,1.15937 -0.68487,2.29648 -1.24072,3.37207 -0.55586,1.07558 -1.25079,2.08848 -2.07422,2.99707 -0.82344,0.90859 -1.77618,1.71318 -2.84766,2.37158 -1.07148,0.6584 -2.2625,1.17061 -3.5625,1.49561 -0.825,0.2 -1.73701,0.21943 -2.6792,0.0835 -0.94219,-0.13594 -1.91416,-0.42646 -2.85791,-0.84521 -0.94375,-0.41875 -1.85977,-0.96582 -2.68945,-1.61426 -0.82969,-0.64844 -1.57237,-1.39863 -2.17237,-2.22363 -0.56249,-0.8 -1.03847,-1.60743 -1.42675,-2.417 -0.38828,-0.80957 -0.68965,-1.62168 -0.90528,-2.42871 -0.21562,-0.80703 -0.34511,-1.60996 -0.38965,-2.40234 -0.0445,-0.79238 -0.003,-1.57373 0.12159,-2.33936 0.125,-0.76562 0.33398,-1.51445 0.62695,-2.24121 0.29297,-0.72675 0.67002,-1.43213 1.12939,-2.10791 0.45938,-0.67578 1.00176,-1.32236 1.62598,-1.93506 0.62422,-0.61269 1.3292,-1.19101 2.1167,-1.72851 1.1,-0.725 2.16953,-1.28125 3.22266,-1.66406 1.05312,-0.38282 2.08994,-0.59131 3.12744,-0.62256 z"
             transform="matrix(9.9999998,0,0,-9.9999998,1926.67,8468.463)" /></g><path
           d="m 4940,5604 c -235,-48 -300,-91 -300,-201 0,-96 60,-189 174,-265 33,-23 89,-65 123,-94 72,-61 99,-69 201,-59 73,7 76,8 158,73 46,37 101,79 123,94 73,50 129,170 117,251 -20,132 -154,196 -426,202 -80,2 -156,1 -170,-1 z"
           id="path208"
           inkscape:label="nose" /><path
           d="m 5036,4944 c -10,-11 -27,-34 -39,-53 -29,-46 -58,-65 -147,-102 -146,-60 -247,-49 -362,42 -70,54 -106,61 -139,28 -45,-45 -3,-155 85,-219 68,-51 141,-73 221,-68 l 70,5 -3,-49 c -2,-26 1,-87 7,-135 29,-222 162,-346 371,-346 63,0 99,5 139,21 174,68 244,182 245,404 l 1,106 47,-5 c 31,-4 68,1 115,15 118,36 194,98 222,181 19,58 -27,121 -88,121 -9,0 -39,-23 -66,-51 -60,-63 -112,-90 -186,-96 -138,-13 -273,54 -365,181 -27,37 -102,49 -128,20 z m 284,-554 c -14,-51 -87,-133 -145,-162 -73,-38 -140,-23 -211,49 -35,35 -70,100 -60,110 3,3 50,0 105,-6 96,-12 105,-11 198,14 54,14 102,30 107,35 16,16 18,4 6,-40 z"
           id="path210"
           inkscape:label="mouse" /><path
           d="m 7074,4872 c -18,-12 -31,-44 -39,-97 -4,-27 -13,-65 -21,-84 -23,-55 -12,-71 50,-71 73,0 106,31 130,123 17,64 8,110 -24,127 -22,12 -80,13 -96,2 z"
           id="path212"
           inkscape:label="rightbp" /><path
           d="m 3063,4858 c -35,-17 -47,-60 -33,-115 20,-83 47,-132 76,-143 31,-12 78,-5 111,17 28,19 29,33 3,75 -11,18 -23,55 -26,81 -12,85 -63,118 -131,85 z"
           id="path214"
           inkscape:label="leftbp" /></g></g></g></svg>
