<!DOCTYPE svg PUBLIC "-//W3C//DTD SVG 1.1//EN" "http://www.w3.org/Graphics/SVG/1.1/DTD/svg11.dtd">
<!-- Uploaded to: SVG Repo, www.svgrepo.com, Transformed by: SVG Repo Mixer Tools -->
<svg width="800px" height="800px" viewBox="0 0 24 24" fill="none" xmlns="http://www.w3.org/2000/svg">
<g id="SVGRepo_bgCarrier" stroke-width="0"/>
<g id="SVGRepo_tracerCarrier" stroke-linecap="round" stroke-linejoin="round"/>
<g id="SVGRepo_iconCarrier"> <path d="M14.2084 13.5521C16.3025 13.5521 18 11.8615 18 9.77606C18 7.6906 16.3025 6 14.2084 6C12.1144 6 10.4169 7.6906 10.4169 9.77606C10.4169 10.742 10.8578 11.4446 10.8578 11.4446L6.27264 16.011C6.0669 16.2159 5.77886 16.7486 6.27264 17.2404L6.8017 17.7673C7.00743 17.9429 7.52471 18.1888 7.94796 17.7673L8.56519 17.1526C9.18242 17.7673 9.88782 17.416 10.1523 17.0647C10.5932 16.45 10.0642 15.8353 10.0642 15.8353L10.2405 15.6597C11.087 16.5027 11.8277 16.011 12.0922 15.6597C12.5331 15.045 12.0922 14.4303 12.0922 14.4303C11.9159 14.079 11.5632 14.079 12.004 13.64L12.5331 13.113C12.9564 13.4643 13.8264 13.5521 14.2084 13.5521Z" stroke="#ff8434" stroke-width="1.5" stroke-linejoin="round"/> <path d="M22 12C22 16.714 22 19.0711 20.5355 20.5355C19.0711 22 16.714 22 12 22C7.28595 22 4.92893 22 3.46447 20.5355C2 19.0711 2 16.714 2 12C2 7.28595 2 4.92893 3.46447 3.46447C4.92893 2 7.28595 2 12 2C16.714 2 19.0711 2 20.5355 3.46447C21.5093 4.43821 21.8356 5.80655 21.9449 8" stroke="#ff8434" stroke-width="1.5" stroke-linecap="round"/> </g>
</svg>