<!DOCTYPE svg PUBLIC "-//W3C//DTD SVG 1.1//EN" "http://www.w3.org/Graphics/SVG/1.1/DTD/svg11.dtd">
<!-- Uploaded to: SVG Repo, www.svgrepo.com, Transformed by: SVG Repo Mixer Tools -->
<svg width="800px" height="800px" viewBox="0 0 24 24" fill="none" xmlns="http://www.w3.org/2000/svg">
<g id="SVGRepo_bgCarrier" stroke-width="0"/>
<g id="SVGRepo_tracerCarrier" stroke-linecap="round" stroke-linejoin="round"/>
<g id="SVGRepo_iconCarrier"> <path d="M4.8916 9.61431C4.8916 9.21193 5.21525 8.88574 5.61449 8.88574H9.46991C9.86916 8.88574 10.1928 9.21193 10.1928 9.61431C10.1928 10.0167 9.86916 10.3429 9.46991 10.3429H5.61449C5.21525 10.3429 4.8916 10.0167 4.8916 9.61431Z" fill="#98989a"/> <path fill-rule="evenodd" clip-rule="evenodd" d="M21.1884 10.0038C21.1262 9.99995 21.0584 9.99998 20.9881 10L20.9706 10H18.2149C15.9435 10 14 11.7361 14 14C14 16.2639 15.9435 18 18.2149 18H20.9706L20.9881 18C21.0584 18 21.1262 18 21.1884 17.9962C22.111 17.9397 22.927 17.2386 22.9956 16.2594C23.0001 16.1952 23 16.126 23 16.0619L23 16.0444V11.9556L23 11.9381C23 11.874 23.0001 11.8048 22.9956 11.7406C22.927 10.7614 22.111 10.0603 21.1884 10.0038ZM17.9706 15.0667C18.5554 15.0667 19.0294 14.5891 19.0294 14C19.0294 13.4109 18.5554 12.9333 17.9706 12.9333C17.3858 12.9333 16.9118 13.4109 16.9118 14C16.9118 14.5891 17.3858 15.0667 17.9706 15.0667Z" fill="#98989a"/> <path opacity="0.5" d="M21.1394 10.0015C21.1394 8.82091 21.0965 7.55447 20.3418 6.64658C20.2689 6.55894 20.1914 6.47384 20.1088 6.39124C19.3604 5.64288 18.4114 5.31076 17.239 5.15314C16.0998 4.99997 14.6442 4.99999 12.8064 5H10.6936C8.85583 4.99999 7.40019 4.99997 6.26098 5.15314C5.08856 5.31076 4.13961 5.64288 3.39124 6.39124C2.64288 7.13961 2.31076 8.08856 2.15314 9.26098C1.99997 10.4002 1.99999 11.8558 2 13.6936V13.8064C1.99999 15.6442 1.99997 17.0998 2.15314 18.239C2.31076 19.4114 2.64288 20.3604 3.39124 21.1088C4.13961 21.8571 5.08856 22.1892 6.26098 22.3469C7.40018 22.5 8.8558 22.5 10.6935 22.5H12.8064C14.6442 22.5 16.0998 22.5 17.239 22.3469C18.4114 22.1892 19.3604 21.8571 20.1088 21.1088C20.3133 20.9042 20.487 20.6844 20.6346 20.4486C21.0851 19.7291 21.1394 18.8473 21.1394 17.9985C21.0912 18 21.0404 18 20.9882 18L18.2149 18C15.9435 18 14 16.2639 14 14C14 11.7361 15.9435 10 18.2149 10L20.9881 10C21.0403 9.99999 21.0912 9.99997 21.1394 10.0015Z" fill="#98989a"/> <path d="M10.1013 2.57211L7.99988 3.99253L6.2666 5.15237C7.40496 4.99997 8.8588 4.99999 10.6935 5H12.8063C14.6441 4.99998 16.0997 4.99997 17.2389 5.15314C17.4681 5.18394 17.6887 5.22142 17.9009 5.26737L15.9999 4L13.8874 2.57211C12.7588 1.8093 11.2299 1.8093 10.1013 2.57211Z" fill="#98989a"/> </g>
</svg>