<?xml version="1.0" encoding="UTF-8" standalone="no"?>
<!-- Created with Inkscape (http://www.inkscape.org/) -->

<svg
   xmlns:dc="http://purl.org/dc/elements/1.1/"
   xmlns:cc="http://creativecommons.org/ns#"
   xmlns:rdf="http://www.w3.org/1999/02/22-rdf-syntax-ns#"
   xmlns:svg="http://www.w3.org/2000/svg"
   xmlns="http://www.w3.org/2000/svg"
   version="1.1"
   width="368"
   height="368"
   id="svg8822">
  <metadata
     id="metadata9308">
    <rdf:RDF>
      <cc:Work
         rdf:about="">
        <dc:format>image/svg+xml</dc:format>
        <dc:type
           rdf:resource="http://purl.org/dc/dcmitype/StillImage" />
        <dc:title></dc:title>
      </cc:Work>
    </rdf:RDF>
  </metadata>
  <defs
     id="defs9306" />
  <path
     d="m 16,16 0,16 0,16 0,16 0,16 0,16 0,16 0,16 16,0 16,0 16,0 16,0 16,0 16,0 16,0 0,-16 0,-16 0,-16 0,-16 0,-16 0,-16 0,-16 -16,0 -16,0 -16,0 -16,0 -16,0 -16,0 -16,0 z m 128,0 0,16 0,16 16,0 0,-16 16,0 0,-16 -16,0 -16,0 z m 32,16 0,16 16,0 0,-16 -16,0 z m 16,16 0,16 16,0 16,0 0,-16 0,-16 0,-16 -16,0 0,16 0,16 -16,0 z m 0,16 -16,0 -16,0 -16,0 0,16 16,0 16,0 0,16 -16,0 0,16 16,0 0,16 16,0 0,-16 16,0 0,16 -16,0 0,16 -16,0 0,16 16,0 16,0 0,16 16,0 0,-16 0,-16 0,-16 0,-16 0,-16 -16,0 0,-16 -16,0 0,-16 z m 16,112 -16,0 0,16 -16,0 0,16 0,16 16,0 0,16 0,16 -16,0 -16,0 0,-16 16,0 0,-16 -16,0 0,-16 0,-16 -16,0 0,-16 16,0 0,16 16,0 0,-16 0,-16 -16,0 -16,0 0,-16 -16,0 -16,0 -16,0 0,16 -16,0 0,16 -16,0 0,-16 16,0 0,-16 -16,0 -16,0 0,16 -16,0 0,16 0,16 0,16 16,0 0,-16 16,0 16,0 16,0 0,-16 16,0 0,-16 16,0 0,16 -16,0 0,16 16,0 0,16 -16,0 0,16 16,0 16,0 0,16 0,16 0,16 16,0 0,16 16,0 16,0 16,0 0,16 -16,0 -16,0 -16,0 0,-16 -16,0 0,16 0,16 16,0 0,16 -16,0 0,16 16,0 16,0 0,-16 16,0 0,16 16,0 16,0 16,0 16,0 0,-16 16,0 0,16 16,0 16,0 16,0 0,-16 -16,0 -16,0 0,-16 -16,0 0,-16 -16,0 0,16 -16,0 -16,0 0,16 -16,0 0,-16 16,0 0,-16 0,-16 0,-16 16,0 0,-16 -16,0 -16,0 0,-16 16,0 0,-16 0,-16 0,-16 -16,0 0,-16 z m 48,128 0,-16 -16,0 0,16 16,0 z m 32,16 16,0 16,0 0,-16 -16,0 -16,0 0,16 z m 32,-16 16,0 0,-16 0,-16 0,-16 0,-16 -16,0 -16,0 -16,0 0,-16 -16,0 0,16 -16,0 0,16 0,16 16,0 0,-16 16,0 0,16 0,16 16,0 16,0 0,16 z m -48,-80 0,-16 -16,0 -16,0 0,16 16,0 16,0 z m 16,0 16,0 0,-16 0,-16 0,-16 16,0 0,16 16,0 0,16 16,0 0,-16 0,-16 -16,0 0,-16 16,0 0,-16 -16,0 -16,0 0,16 -16,0 0,-16 -16,0 0,16 -16,0 0,16 16,0 0,16 0,16 0,16 z m -16,-48 -16,0 0,16 16,0 0,-16 z m 64,32 -16,0 0,16 16,0 0,-16 z m -224,0 0,-16 -16,0 0,16 16,0 z m -16,0 -16,0 -16,0 -16,0 0,16 16,0 16,0 16,0 0,-16 z m -64,0 -16,0 0,16 16,0 0,-16 z m 0,-48 0,-16 -16,0 0,16 16,0 z m 112,-16 16,0 0,-16 0,-16 -16,0 0,16 0,16 z m 96,-128 0,16 0,16 0,16 0,16 0,16 0,16 0,16 16,0 16,0 16,0 16,0 16,0 16,0 16,0 0,-16 0,-16 0,-16 0,-16 0,-16 0,-16 0,-16 -16,0 -16,0 -16,0 -16,0 -16,0 -16,0 -16,0 z m -208,16 16,0 16,0 16,0 16,0 16,0 0,16 0,16 0,16 0,16 0,16 -16,0 -16,0 -16,0 -16,0 -16,0 0,-16 0,-16 0,-16 0,-16 0,-16 z m 224,0 16,0 16,0 16,0 16,0 16,0 0,16 0,16 0,16 0,16 0,16 -16,0 -16,0 -16,0 -16,0 -16,0 0,-16 0,-16 0,-16 0,-16 0,-16 z m -208,16 0,16 0,16 0,16 16,0 16,0 16,0 0,-16 0,-16 0,-16 -16,0 -16,0 -16,0 z m 224,0 0,16 0,16 0,16 16,0 16,0 16,0 0,-16 0,-16 0,-16 -16,0 -16,0 -16,0 z m -32,96 0,16 16,0 0,-16 -16,0 z m -224,96 0,16 0,16 0,16 0,16 0,16 0,16 0,16 16,0 16,0 16,0 16,0 16,0 16,0 16,0 0,-16 0,-16 0,-16 0,-16 0,-16 0,-16 0,-16 -16,0 -16,0 -16,0 -16,0 -16,0 -16,0 -16,0 z m 16,16 16,0 16,0 16,0 16,0 16,0 0,16 0,16 0,16 0,16 0,16 -16,0 -16,0 -16,0 -16,0 -16,0 0,-16 0,-16 0,-16 0,-16 0,-16 z m 16,16 0,16 0,16 0,16 16,0 16,0 16,0 0,-16 0,-16 0,-16 -16,0 -16,0 -16,0 z m 288,48 0,16 16,0 0,-16 -16,0 z"
     id="path3093"
     style="fill:#000000;stroke:none" />
</svg>
