<?xml version="1.0" encoding="UTF-8" standalone="no"?>
<!-- Generator: Adobe Illustrator 16.0.0, SVG Export Plug-In . SVG Version: 6.00 Build 0)  -->

<svg
   xmlns:dc="http://purl.org/dc/elements/1.1/"
   xmlns:cc="http://creativecommons.org/ns#"
   xmlns:rdf="http://www.w3.org/1999/02/22-rdf-syntax-ns#"
   xmlns:svg="http://www.w3.org/2000/svg"
   xmlns="http://www.w3.org/2000/svg"
   xmlns:sodipodi="http://sodipodi.sourceforge.net/DTD/sodipodi-0.dtd"
   xmlns:inkscape="http://www.inkscape.org/namespaces/inkscape"
   version="1.1"
   id="Capa_1"
   x="0px"
   y="0px"
   width="612"
   height="535.5"
   viewBox="0 0 612 535.5"
   xml:space="preserve"
   sodipodi:docname="authenticate.svg"
   inkscape:export-filename="C:\Projects\SimpleIdServer\logos\Buttons\authenticate.png"
   inkscape:export-xdpi="10.980392"
   inkscape:export-ydpi="10.980392"
   inkscape:version="0.92.3 (2405546, 2018-03-11)"><metadata
   id="metadata4612"><rdf:RDF><cc:Work
       rdf:about=""><dc:format>image/svg+xml</dc:format><dc:type
         rdf:resource="http://purl.org/dc/dcmitype/StillImage" /></cc:Work></rdf:RDF></metadata><defs
   id="defs4610" /><sodipodi:namedview
   pagecolor="#ffffff"
   bordercolor="#666666"
   borderopacity="1"
   objecttolerance="10"
   gridtolerance="10"
   guidetolerance="10"
   inkscape:pageopacity="0"
   inkscape:pageshadow="2"
   inkscape:window-width="2100"
   inkscape:window-height="1234"
   id="namedview4608"
   showgrid="false"
   inkscape:zoom="0.8504902"
   inkscape:cx="219.40492"
   inkscape:cy="99.192084"
   inkscape:window-x="-32000"
   inkscape:window-y="-32000"
   inkscape:window-maximized="0"
   inkscape:current-layer="g4572" />
<g
   id="g4575"
   transform="translate(0,-38.25)">
	<g
   id="_x36__30_">
		<g
   id="g4572">
			<path
   style="fill:#000000;fill-opacity:1"
   d="m 331.685,425.378 c -7.478,7.479 -7.478,19.584 0,27.043 7.479,7.478 19.584,7.478 27.043,0 L 490.671,320.459 c 3.979,-3.979 5.681,-9.276 5.412,-14.479 0.269,-5.221 -1.434,-10.499 -5.412,-14.477 L 358.728,159.56 c -7.459,-7.478 -19.584,-7.478 -27.043,0 -7.478,7.478 -7.478,19.584 0,27.042 L 431.957,286.874 H 19.125 C 8.568,286.875 0,295.443 0,306 c 0,10.557 8.568,19.125 19.125,19.125 h 412.832 z"
   id="path4622"
   inkscape:connector-curvature="0" /><path
   style="fill:#00b0dc;fill-opacity:1"
   d="M 535.5,38.25 H 153 c -42.247,0 -76.5,34.253 -76.5,76.5 v 76.5 h 38.25 v -76.5 C 114.75,93.636 131.867,76.5 153,76.5 h 382.5 c 21.133,0 38.25,17.136 38.25,38.25 v 382.5 c 0,21.114 -17.117,38.25 -38.25,38.25 H 153 c -21.133,0 -38.25,-17.117 -38.25,-38.25 v -76.5 H 76.5 v 76.5 c 0,42.247 34.253,76.5 76.5,76.5 h 382.5 c 42.247,0 76.5,-34.253 76.5,-76.5 v -382.5 c 0,-42.247 -34.253,-76.5 -76.5,-76.5 z"
   id="path4570"
   inkscape:connector-curvature="0" />
		</g>
	</g>
</g>
<g
   id="g4577"
   transform="translate(0,-38.25)">
</g>
<g
   id="g4579"
   transform="translate(0,-38.25)">
</g>
<g
   id="g4581"
   transform="translate(0,-38.25)">
</g>
<g
   id="g4583"
   transform="translate(0,-38.25)">
</g>
<g
   id="g4585"
   transform="translate(0,-38.25)">
</g>
<g
   id="g4587"
   transform="translate(0,-38.25)">
</g>
<g
   id="g4589"
   transform="translate(0,-38.25)">
</g>
<g
   id="g4591"
   transform="translate(0,-38.25)">
</g>
<g
   id="g4593"
   transform="translate(0,-38.25)">
</g>
<g
   id="g4595"
   transform="translate(0,-38.25)">
</g>
<g
   id="g4597"
   transform="translate(0,-38.25)">
</g>
<g
   id="g4599"
   transform="translate(0,-38.25)">
</g>
<g
   id="g4601"
   transform="translate(0,-38.25)">
</g>
<g
   id="g4603"
   transform="translate(0,-38.25)">
</g>
<g
   id="g4605"
   transform="translate(0,-38.25)">
</g>
</svg>