<?xml version="1.0" encoding="UTF-8" standalone="no"?>
<svg
   version="1.0"
   width="580pt"
   height="580pt"
   viewBox="0 0 580 580"
   preserveAspectRatio="xMidYMid"
   id="svg24"
   sodipodi:docname="credentials.svg"
   inkscape:version="1.2 (dc2aedaf03, 2022-05-15)"
   xmlns:inkscape="http://www.inkscape.org/namespaces/inkscape"
   xmlns:sodipodi="http://sodipodi.sourceforge.net/DTD/sodipodi-0.dtd"
   xmlns="http://www.w3.org/2000/svg"
   xmlns:svg="http://www.w3.org/2000/svg">
  <defs
     id="defs28" />
  <sodipodi:namedview
     id="namedview26"
     pagecolor="#ffffff"
     bordercolor="#000000"
     borderopacity="0.25"
     inkscape:showpageshadow="2"
     inkscape:pageopacity="0.0"
     inkscape:pagecheckerboard="0"
     inkscape:deskcolor="#d1d1d1"
     inkscape:document-units="pt"
     showgrid="false"
     inkscape:zoom="0.61010742"
     inkscape:cx="505.64866"
     inkscape:cy="635.13405"
     inkscape:window-width="2560"
     inkscape:window-height="1351"
     inkscape:window-x="-9"
     inkscape:window-y="77"
     inkscape:window-maximized="1"
     inkscape:current-layer="svg24" />
  <circle
     style="fill:#f7b548;fill-opacity:1;stroke-width:11.4317"
     id="path925"
     cx="290"
     cy="290"
     r="290" />
  <g
     transform="matrix(0.1,0,0,-0.1,31.961609,531.66867)"
     fill="#000000"
     stroke="none"
     id="g22"
     inkscape:label="credentials">
    <path
       d="m 2010,5109 c -25,-5 -78,-25 -119,-45 -100,-49 -173,-125 -231,-238 -74,-145 -150,-199 -310,-223 -221,-32 -377,-164 -435,-367 -14,-49 -16,-78 -10,-155 22,-268 12,-303 -120,-441 -98,-102 -137,-175 -156,-289 -9,-54 -9,-88 0,-142 19,-114 58,-187 156,-289 132,-138 142,-173 120,-441 -9,-109 5,-172 58,-272 28,-53 135,-167 158,-167 5,0 9,-7 9,-15 0,-8 -131,-358 -290,-777 C 643,731 551,478 555,462 c 8,-33 41,-62 71,-62 14,0 163,49 332,110 169,60 313,110 320,112 8,2 77,-114 177,-297 90,-165 172,-305 181,-312 23,-17 65,-16 90,1 14,10 104,235 295,737 l 274,722 92,45 c 86,41 98,45 173,45 75,0 87,-4 173,-45 l 92,-45 274,-722 c 191,-502 281,-727 295,-737 28,-19 70,-18 94,4 11,9 91,147 177,307 86,160 160,293 164,297 3,3 148,-45 321,-108 173,-62 327,-113 343,-114 31,0 64,28 72,62 4,16 -88,269 -285,786 -159,419 -290,765 -290,770 0,4 31,35 68,68 74,67 119,140 147,238 14,49 16,78 10,155 -22,268 -12,303 120,441 98,102 137,175 156,289 9,54 9,88 0,142 -19,114 -58,187 -156,289 -132,138 -142,173 -120,441 6,77 4,106 -10,155 -58,203 -214,334 -436,367 -159,24 -235,79 -309,223 -58,113 -131,189 -232,239 -152,75 -295,72 -466,-9 -168,-80 -236,-80 -402,-1 -132,62 -229,77 -350,54 z m 185,-160 c 22,-6 69,-26 105,-44 93,-47 168,-67 260,-67 92,0 167,20 260,67 125,65 217,70 330,19 72,-32 127,-89 171,-176 47,-94 96,-156 161,-204 73,-53 148,-82 258,-99 144,-22 230,-78 287,-187 24,-46 27,-64 27,-138 -1,-47 -5,-123 -9,-169 -15,-158 31,-276 157,-401 102,-102 132,-164 132,-270 0,-106 -30,-168 -132,-270 -126,-125 -172,-243 -157,-401 4,-46 8,-122 9,-169 0,-74 -3,-92 -27,-138 -57,-109 -143,-165 -287,-187 -206,-31 -327,-119 -419,-303 -44,-87 -99,-144 -171,-176 -113,-51 -205,-46 -330,19 -178,91 -342,91 -520,0 -125,-65 -217,-70 -330,-19 -72,32 -127,89 -171,176 -47,94 -96,156 -161,204 -73,53 -148,82 -258,99 -144,22 -230,78 -287,187 -24,46 -27,64 -27,138 0,47 4,124 9,171 14,157 -32,274 -158,400 -101,102 -131,163 -131,269 0,105 30,167 131,268 126,127 172,244 158,401 -5,47 -9,124 -9,171 0,74 3,92 27,138 57,109 143,165 287,187 205,31 327,119 419,302 54,108 119,166 217,197 59,18 125,20 179,5 z M 1489,1920 c 72,-36 123,-92 171,-186 81,-160 216,-261 379,-287 59,-9 71,-14 66,-26 -4,-9 -101,-266 -217,-571 -116,-305 -214,-559 -218,-563 -4,-4 -66,101 -139,235 -125,231 -164,288 -196,288 -8,0 -135,-43 -281,-95 -147,-53 -270,-94 -274,-93 -5,2 460,1240 497,1321 l 11,24 79,-12 c 44,-7 99,-23 122,-35 z m 2604,-631 c 140,-365 250,-665 247,-667 -4,-1 -126,40 -273,93 -147,52 -273,95 -281,95 -33,0 -71,-56 -197,-288 -73,-134 -135,-239 -139,-235 -4,4 -102,258 -218,563 -116,305 -213,562 -217,571 -5,12 8,17 66,26 163,26 298,127 379,287 48,94 99,150 171,187 45,23 188,51 202,39 4,-4 121,-305 260,-671 z"
       id="path16"
       inkscape:label="path16"
       style="fill:#ffffff" />
    <path
       d="m 2425,4474 c -168,-26 -282,-62 -418,-132 -317,-162 -546,-464 -623,-822 -26,-118 -26,-362 0,-480 103,-475 454,-826 938,-937 101,-23 373,-23 476,0 244,56 437,161 608,331 170,171 275,364 331,608 23,103 23,375 0,476 -110,478 -453,827 -917,933 -83,19 -327,33 -395,23 z m 355,-178 c 211,-50 380,-145 523,-293 85,-87 124,-142 181,-252 152,-296 153,-634 3,-936 -195,-394 -640,-628 -1070,-564 -498,74 -867,478 -894,980 -25,461 273,892 717,1037 160,53 388,64 540,28 z"
       id="path18"
       style="fill:#ffffff" />
    <path
       d="m 2527,3988 c -23,-8 -43,-40 -118,-191 -49,-100 -93,-185 -97,-189 -4,-4 -100,-21 -212,-37 -227,-33 -240,-39 -240,-108 0,-33 12,-48 151,-182 l 151,-146 -32,-185 c -41,-238 -41,-246 -6,-276 15,-13 36,-24 47,-24 11,0 102,43 201,95 99,52 185,95 190,95 4,0 89,-43 187,-95 98,-52 188,-95 199,-95 12,0 33,11 48,24 35,30 35,38 -6,276 l -32,185 151,146 c 139,134 151,148 151,181 0,70 -12,75 -240,109 -113,17 -208,34 -213,38 -4,4 -45,83 -91,177 -100,203 -122,226 -189,202 z m 103,-387 c 37,-75 72,-134 84,-140 12,-6 81,-20 154,-30 74,-11 136,-22 138,-24 3,-2 -39,-44 -91,-93 -132,-120 -130,-116 -105,-266 12,-68 24,-134 27,-147 6,-23 -3,-19 -121,42 -71,38 -139,67 -155,67 -16,0 -85,-30 -156,-67 -118,-61 -128,-64 -122,-42 3,13 15,79 27,147 25,150 27,146 -105,267 -52,48 -94,90 -91,92 2,2 64,13 138,24 73,10 142,24 154,30 12,6 47,65 84,140 36,71 67,129 70,129 3,0 34,-58 70,-129 z"
       id="path20"
       style="fill:#ffffff" />
  </g>
</svg>
