<?xml version="1.0" encoding="UTF-8" standalone="no"?>
<svg
   version="1.0"
   width="650pt"
   height="650pt"
   viewBox="0 0 650 650"
   preserveAspectRatio="xMidYMid"
   id="svg28"
   sodipodi:docname="otp.svg"
   inkscape:version="1.2 (dc2aedaf03, 2022-05-15)"
   xmlns:inkscape="http://www.inkscape.org/namespaces/inkscape"
   xmlns:sodipodi="http://sodipodi.sourceforge.net/DTD/sodipodi-0.dtd"
   xmlns="http://www.w3.org/2000/svg"
   xmlns:svg="http://www.w3.org/2000/svg">
  <defs
     id="defs32" />
  <sodipodi:namedview
     id="namedview30"
     pagecolor="#ffffff"
     bordercolor="#000000"
     borderopacity="0.25"
     inkscape:showpageshadow="2"
     inkscape:pageopacity="0.0"
     inkscape:pagecheckerboard="0"
     inkscape:deskcolor="#d1d1d1"
     inkscape:document-units="pt"
     showgrid="false"
     inkscape:zoom="0.4314111"
     inkscape:cx="857.65063"
     inkscape:cy="1097.561"
     inkscape:window-width="2560"
     inkscape:window-height="1351"
     inkscape:window-x="-9"
     inkscape:window-y="77"
     inkscape:window-maximized="1"
     inkscape:current-layer="svg28" />
  <circle
     style="fill:#ff8434;fill-opacity:1;stroke-width:12.4058"
     id="path868"
     cx="325"
     cy="325"
     r="325" />
  <g
     transform="matrix(0.1,0,0,-0.1,93.950273,578.15272)"
     fill="#000000"
     stroke="none"
     id="g26"
     inkscape:label="Key">
    <path
       d="m 3195,5034 c -277,-30 -582,-144 -805,-302 -122,-86 -316,-280 -402,-402 -345,-488 -403,-1130 -150,-1673 l 46,-98 -866,-867 C 542,1215 144,810 135,792 124,769 112,688 98,530 73,254 76,233 154,154 231,78 254,74 502,95 c 245,20 295,32 353,86 83,77 118,164 130,329 9,125 2,116 106,125 222,17 287,78 309,290 7,61 13,111 14,112 0,1 48,7 106,13 128,13 198,43 241,103 36,49 46,87 55,199 4,47 9,90 13,95 3,5 64,15 135,21 201,19 184,9 403,225 l 192,190 93,-43 c 535,-248 1148,-201 1643,128 562,372 849,1073 709,1732 -70,330 -224,614 -463,850 -251,249 -547,403 -897,465 -86,16 -368,27 -449,19 z m 450,-184 c 180,-35 384,-115 529,-208 719,-460 920,-1414 449,-2126 -88,-133 -282,-328 -412,-415 -178,-118 -376,-198 -586,-237 -148,-28 -413,-25 -555,5 -142,30 -264,72 -393,137 -60,30 -120,54 -135,54 -21,0 -69,-42 -237,-210 -127,-126 -219,-210 -231,-210 -10,-1 -95,-9 -187,-19 -215,-22 -205,-14 -223,-192 -8,-74 -16,-144 -19,-156 -10,-41 -46,-53 -197,-69 -144,-15 -170,-24 -183,-63 -2,-9 -11,-79 -19,-156 -19,-179 -18,-177 -178,-193 -63,-7 -126,-12 -141,-12 -14,0 -38,-10 -53,-23 C 849,735 847,725 830,567 810,382 790,322 739,291 700,267 313,232 281,249 c -42,23 -44,42 -27,245 10,105 19,202 22,216 3,16 315,335 895,915 727,728 889,895 889,916 0,15 -27,82 -60,150 -112,235 -154,412 -154,664 0,191 18,308 74,476 189,571 672,963 1280,1039 109,13 321,4 445,-20 z"
       id="path18"
       style="fill:#ffffff" />
    <path
       d="m 3225,4554 c -167,-26 -282,-62 -418,-132 -317,-162 -546,-464 -623,-822 -26,-118 -26,-362 0,-480 92,-425 398,-768 803,-899 138,-44 215,-56 373,-56 83,0 175,6 215,14 495,98 868,471 966,966 8,40 14,132 14,215 0,157 -12,236 -56,372 -58,179 -155,335 -293,474 -170,170 -369,278 -608,330 -71,15 -312,27 -373,18 z m 355,-178 c 211,-50 380,-145 523,-293 85,-87 124,-142 181,-252 152,-296 153,-634 3,-936 -96,-194 -268,-366 -462,-462 -302,-150 -640,-149 -936,3 -110,57 -165,96 -252,181 -243,235 -357,575 -303,901 75,449 403,783 851,867 98,18 301,14 395,-9 z"
       id="path20"
       style="fill:#ffffff" />
    <path
       d="m 3245,4233 c -60,-8 -181,-42 -239,-68 -482,-213 -670,-804 -400,-1257 65,-108 194,-237 302,-302 346,-206 789,-151 1073,133 112,112 191,253 235,417 27,103 26,312 -3,419 -92,340 -362,591 -698,650 -81,14 -198,17 -270,8 z m 35,-213 c 0,-62 31,-100 80,-100 49,0 80,38 80,100 0,45 2,50 23,50 69,0 247,-71 312,-123 l 29,-25 -32,-36 c -53,-61 -52,-106 3,-142 32,-21 65,-13 111,28 l 36,32 25,-29 c 52,-65 123,-243 123,-312 0,-21 -5,-23 -50,-23 -62,0 -100,-31 -100,-80 0,-49 38,-80 100,-80 45,0 50,-2 50,-23 0,-69 -71,-247 -123,-312 l -25,-29 -36,32 c -46,41 -79,49 -111,28 -55,-36 -56,-81 -3,-142 l 32,-36 -29,-25 c -65,-52 -243,-123 -312,-123 -21,0 -23,5 -23,50 0,62 -31,100 -80,100 -49,0 -80,-38 -80,-100 0,-45 -2,-50 -23,-50 -69,0 -247,71 -312,123 l -29,25 32,36 c 53,61 52,106 -3,142 -32,21 -65,13 -111,-28 l -36,-32 -25,29 c -52,65 -123,243 -123,312 0,21 5,23 50,23 62,0 100,31 100,80 0,49 -38,80 -100,80 -45,0 -50,2 -50,23 0,69 71,247 123,312 l 25,29 36,-32 c 46,-41 79,-49 111,-28 55,36 56,81 3,142 l -32,36 29,25 c 65,53 235,121 308,122 26,1 27,-1 27,-49 z"
       id="path22"
       style="fill:#ffffff" />
    <path
       d="m 3305,3735 c -25,-24 -25,-26 -25,-215 0,-189 0,-191 25,-215 23,-24 28,-25 175,-25 147,0 152,1 175,25 16,15 25,36 25,55 0,19 -9,40 -25,55 -22,23 -32,25 -120,25 h -95 v 135 c 0,131 -1,137 -25,160 -15,16 -36,25 -55,25 -19,0 -40,-9 -55,-25 z"
       id="path24"
       style="fill:#ffffff" />
  </g>
</svg>
