<?xml version="1.0" encoding="UTF-8" standalone="no"?>
<!-- Created with Inkscape (http://www.inkscape.org/) -->

<svg
   xmlns:dc="http://purl.org/dc/elements/1.1/"
   xmlns:cc="http://creativecommons.org/ns#"
   xmlns:rdf="http://www.w3.org/1999/02/22-rdf-syntax-ns#"
   xmlns:svg="http://www.w3.org/2000/svg"
   xmlns="http://www.w3.org/2000/svg"
   xmlns:sodipodi="http://sodipodi.sourceforge.net/DTD/sodipodi-0.dtd"
   xmlns:inkscape="http://www.inkscape.org/namespaces/inkscape"
   version="1.1"
   id="svg815"
   xml:space="preserve"
   width="52.185478"
   height="52.686985"
   viewBox="0 0 52.185479 52.686987"
   sodipodi:docname="SIDLogo-White.svg"
   inkscape:version="0.92.3 (2405546, 2018-03-11)"
   inkscape:export-filename="C:\Projects\simpleidserver.com\images\Shield logo.png"
   inkscape:export-xdpi="96"
   inkscape:export-ydpi="96"><metadata
     id="metadata821"><rdf:RDF><cc:Work
         rdf:about=""><dc:format>image/svg+xml</dc:format><dc:type
           rdf:resource="http://purl.org/dc/dcmitype/StillImage" /><dc:title /></cc:Work></rdf:RDF></metadata><defs
     id="defs819" /><sodipodi:namedview
     pagecolor="#ffffff"
     bordercolor="#666666"
     borderopacity="1"
     objecttolerance="10"
     gridtolerance="10"
     guidetolerance="10"
     inkscape:pageopacity="0"
     inkscape:pageshadow="2"
     inkscape:window-width="1920"
     inkscape:window-height="1001"
     id="namedview817"
     showgrid="false"
     inkscape:zoom="4.7588559"
     inkscape:cx="44.875608"
     inkscape:cy="7.5011885"
     inkscape:window-x="-9"
     inkscape:window-y="-9"
     inkscape:window-maximized="1"
     inkscape:current-layer="g823" /><g
     id="g823"
     inkscape:groupmode="layer"
     inkscape:label="SimpleIdServer logo"
     transform="matrix(1.3333333,0,0,-1.3333333,-37.783661,187.4468)"><path
       d="m 35.441365,139.2461 h 2.746007 9.719975 9.720011 2.74586 l 0.314142,-2.6304 c 0.245307,-2.05438 1.00967,-3.29082 3.111348,-3.82907 l 2.284535,-0.5851 0.005,-2.27932 c 0.02647,-12.00078 -5.694297,-21.26267 -16.790797,-26.67393 l -1.390101,-0.67797 -1.390175,0.67797 c -11.096511,5.41126 -16.817269,14.67315 -16.79082,26.67393 l 0.005,2.27932 2.284644,0.5851 c 2.101567,0.53825 2.865931,1.77469 3.111238,3.82907 z m -1.237826,1.339 -0.455718,-3.81624 c -0.175146,-1.46655 -0.543846,-2.29255 -2.088362,-2.68808 l -3.31442,-0.849 -0.0072,-3.30677 c -0.0273,-12.48112 5.964292,-22.22043 17.552663,-27.87164 l 2.016834,-0.98351 2.016761,0.98351 c 11.58837,5.65121 17.579963,15.39052 17.552666,27.87164 l -0.0072,3.30677 -3.314421,0.849 c -1.544552,0.39553 -1.913253,1.22153 -2.088398,2.68808 l -0.455572,3.81624 H 57.62736 47.907348 38.187373 Z"
       style="fill:#00b0dc;fill-opacity:1;fill-rule:evenodd;stroke:none;stroke-width:0.36223179"
       id="path825"
       inkscape:connector-curvature="0" /><path
       d="m 37.970173,138.11815 c -0.857542,0 -1.552557,-0.67021 -1.552557,-1.49712 0,-0.60738 0.374971,-1.13008 0.913873,-1.36492 -0.299238,-1.12643 -0.780668,-2.03845 -1.421752,-2.76247 -0.480582,-0.54286 -1.053937,-0.98319 -1.709776,-1.33175 -0.360731,0.55547 -1.000892,0.9249 -1.730654,0.9249 -1.127087,0 -2.040813,-0.88103 -2.040813,-1.96776 0,-0.97964 0.742416,-1.79203 1.714276,-1.94266 0.137927,-2.5668 0.561516,-4.90835 1.223514,-7.04258 -0.561736,-0.31458 -0.939436,-0.90099 -0.939436,-1.57252 0,-1.00363 0.843749,-1.81723 1.88459,-1.81723 0.124756,0 0.246783,0.0116 0.364715,0.0341 0.408132,-0.85535 0.858725,-1.67125 1.347753,-2.44913 0.899376,-1.43046 1.928082,-2.73207 3.059892,-3.91466 -0.167917,-0.25247 -0.265376,-0.55276 -0.265376,-0.87499 0,-0.89647 0.753592,-1.62303 1.683289,-1.62303 0.360142,0 0.693686,0.10899 0.967435,0.29471 1.496747,-1.22535 3.115113,-2.29225 4.811166,-3.21763 -0.03848,-0.13652 -0.05906,-0.28 -0.05906,-0.42823 0,-0.89796 0.754847,-1.62583 1.686094,-1.62583 0.931172,0 1.686019,0.72787 1.686019,1.62583 0,0.8979 -0.754847,1.62576 -1.686019,1.62576 -0.106977,0 -0.211518,-0.01 -0.31285,-0.028 l -4.541697,10.03385 c 0.357412,0.26852 0.587226,0.68746 0.587226,1.15822 0,0.26034 -0.07034,0.50474 -0.193627,0.71666 l 3.929239,3.6004 c 0.159136,-0.0797 0.339962,-0.12485 0.531709,-0.12485 0.637245,0 1.153793,0.49813 1.153793,1.11256 0,0.61444 -0.516548,1.11252 -1.153793,1.11252 -0.227196,0 -0.438973,-0.0633 -0.617549,-0.17269 l -4.042301,3.1181 c 0.184774,0.31803 0.290164,0.68461 0.290164,1.07491 0,0.5558 -0.213399,1.06328 -0.565389,1.45085 l 3.954065,4.65181 c 0.291087,-0.15427 0.625405,-0.24199 0.98101,-0.24199 1.127012,0 2.040701,0.88092 2.040701,1.96777 0,1.08684 -0.913689,1.96777 -2.040701,1.96777 -0.998163,0 -1.828853,-0.69099 -2.005768,-1.60399 h -6.425031 c -0.168542,0.65107 -0.779008,1.13333 -1.506373,1.13333 z m 0.215945,-2.97971 1.873376,-4.46719 c -0.454648,-0.2692 -0.804093,-0.68753 -0.97507,-1.1843 l -4.575338,0.69087 c -0.0032,0.10284 -0.01453,0.20374 -0.03346,0.30205 0.769602,0.39616 1.442372,0.90544 2.005953,1.54197 0.725704,0.81963 1.265676,1.84509 1.59306,3.10544 0.03755,0.003 0.07467,0.006 0.111476,0.0112 z m 2.049076,-8.31833 c 0.306467,-0.14729 0.652149,-0.23028 1.017934,-0.23028 0.586193,0 1.120743,0.21286 1.525186,0.56283 l 4.042413,-3.11824 c -0.04353,-0.11706 -0.06725,-0.2432 -0.06725,-0.37466 0,-0.16476 0.03722,-0.32106 0.103841,-0.4617 l -3.929275,-3.60036 c -0.234536,0.14235 -0.512269,0.22484 -0.809957,0.22484 -0.625702,0 -1.163092,-0.36409 -1.396888,-0.88448 l -4.526942,0.69954 c -0.01904,0.44356 -0.202775,0.84597 -0.493973,1.15199 z m 1.964343,-9.93057 c 0.05544,0.003 0.110111,0.009 0.163747,0.0169 l 4.541806,-10.03383 c -0.09849,-0.0703 -0.188609,-0.15064 -0.269027,-0.23947 -1.644298,0.89819 -3.212792,1.93179 -4.663206,3.11701 0.134975,0.23362 0.212034,0.50274 0.212034,0.78919 0,0.65911 -0.407247,1.22638 -0.992407,1.48056 z m -3.230647,11.8813 c 0.0061,-0.59366 0.255341,-1.13097 0.656576,-1.52381 l -4.534799,-6.03064 c -0.237487,0.10415 -0.501276,0.16213 -0.779229,0.16213 -0.07872,0 -0.156223,-0.005 -0.232434,-0.0136 -0.639312,2.06877 -1.04892,4.33942 -1.184411,6.82929 0.698075,0.14277 1.264201,0.62945 1.498626,1.26761 z m -2.893119,-9.84939 4.526646,-0.69945 c 0.04903,-0.52606 0.385631,-0.97199 0.857322,-1.1905 l -1.007163,-4.86971 c -0.304513,-0.009 -0.5887,-0.0949 -0.831943,-0.23928 -1.093113,1.14395 -2.086258,2.40126 -2.954168,3.78159 -0.470032,0.74765 -0.903433,1.53169 -1.296626,2.35353 0.319047,0.20922 0.568006,0.51029 0.705932,0.86382 z m 2.807907,16.48903 c 0.289648,0.20357 0.503488,0.50143 0.59298,0.84678 h 6.42481 c 0.06578,-0.33951 0.221995,-0.64833 0.443694,-0.90233 l -3.953954,-4.6517 c -0.335131,0.18602 -0.723676,0.2923 -1.13808,0.2923 -0.17035,0 -0.336385,-0.0181 -0.496074,-0.0522 z"
       style="fill:#00b0dc;fill-opacity:1;fill-rule:evenodd;stroke:none;stroke-width:0.36223179"
       id="path827"
       inkscape:connector-curvature="0" /><path
       d="m 49.857303,107.01442 z m 0.841423,29.24284 z m -2.791379,-2.35224 v -8.38449 c 1.065447,0 1.929668,-0.83333 1.929668,-1.86077 0,-1.02744 -0.864221,-1.86077 -1.929668,-1.86077 v -13.45678 l 0.185401,-0.40965 c 0.717737,-0.0516 1.349635,-0.39999 1.764739,-0.91835 0.152792,-0.19109 0.276073,-0.40525 0.363498,-0.63613 3.787883,2.18143 7.147454,5.09828 9.569729,8.95094 2.456028,3.9063 3.943661,8.7676 3.930381,14.79001 l -3.69e-4,0.27929 -0.279502,0.0716 c -1.451558,0.37185 -2.650835,1.0237 -3.536193,2.02372 -0.889342,1.00435 -1.47144,2.37035 -1.686131,4.16863 l -0.03848,0.32254 H 57.844553 50.69887 c 0.01653,-0.11906 0.02519,-0.24045 0.02519,-0.36378 0,-0.12331 -0.0087,-0.24471 -0.02498,-0.36377 -0.184441,-1.32782 -1.36417,-2.35224 -2.7916,-2.35224"
       style="fill:#ffffff;fill-opacity:1;fill-rule:evenodd;stroke:none;stroke-width:0.36223179"
       id="path829"
       inkscape:connector-curvature="0" /></g></svg>