<!DOCTYPE svg PUBLIC "-//W3C//DTD SVG 1.1//EN" "http://www.w3.org/Graphics/SVG/1.1/DTD/svg11.dtd">
<!-- Uploaded to: SVG Repo, www.svgrepo.com, Transformed by: SVG Repo Mixer Tools -->
<svg version="1.0" id="Layer_1" xmlns="http://www.w3.org/2000/svg" xmlns:xlink="http://www.w3.org/1999/xlink" width="800px" height="800px" viewBox="0 0 64 64" enable-background="new 0 0 64 64" xml:space="preserve" fill="#000000">
<g id="SVGRepo_bgCarrier" stroke-width="0"/>
<g id="SVGRepo_tracerCarrier" stroke-linecap="round" stroke-linejoin="round"/>
<g id="SVGRepo_iconCarrier"> <g> <path fill="#F9EBB2" d="M43.025,2.123c1.039-0.379,2.186,0.156,2.564,1.195L48.75,12h-6.098C41.826,9.671,39.611,8,37,8 s-4.826,1.672-5.65,4H15.885L43.025,2.123z"/> <path fill="#F76D57" d="M40.445,12h-6.891c0.693-1.189,1.969-2,3.445-2S39.752,10.81,40.445,12z"/> <g> <path fill="#506C7F" d="M53.463,6.394c-0.527-0.471-1.342-0.4-1.348-0.4C52.045,6,50.816,6.128,48.814,6.332L50.879,12H54V8 C54,7.253,53.82,6.712,53.463,6.394z"/> <path fill="#506C7F" d="M2.658,12.248C3.079,12.097,3.527,12,4,12h6.038l6.351-2.311c-5.357,0.561-9.894,1.039-12.278,1.305 C3.432,11.07,2.972,11.599,2.658,12.248z"/> </g> <path fill="#45AAB8" d="M58,60c0,1.105-0.895,2-2,2H4c-1.104,0-2-0.895-2-2V16c0-1.104,0.896-2,2-2h52c1.105,0,2,0.896,2,2v16H42 c-1.105,0-2,0.895-2,2v8c0,1.105,0.895,2,2,2h16V60z"/> <path fill="#B4CCB9" d="M62,41c0,0.553-0.447,1-1,1H43c-0.553,0-1-0.447-1-1v-6c0-0.553,0.447-1,1-1h18c0.553,0,1,0.447,1,1V41z"/> <g> <path fill="#394240" d="M62,32h-2V16c0-2.211-1.789-4-4-4V8c0-1.342-0.404-2.385-1.205-3.098c-1.186-1.059-2.736-0.91-2.896-0.896 c-0.072,0.006-1.484,0.152-3.789,0.389l-0.641-1.76c-0.756-2.078-3.049-3.148-5.127-2.391L24.131,6.871 C15.535,7.763,7.397,8.617,3.89,9.005C0.951,9.332,0.062,12.908,0,14.97C-0.003,15.103,0,60,0,60c0,2.211,1.789,4,4,4h52 c2.211,0,4-1.789,4-4V44h2c1.105,0,2-0.895,2-2v-8C64,32.895,63.105,32,62,32z M52.115,5.994c0.006,0,0.82-0.07,1.348,0.4 C53.82,6.712,54,7.253,54,8v4h-3.121l-2.064-5.668C50.816,6.128,52.045,6,52.115,5.994z M43.025,2.123 c1.039-0.379,2.186,0.156,2.564,1.195L48.75,12h-6.098C41.826,9.671,39.611,8,37,8s-4.826,1.672-5.65,4H15.885L43.025,2.123z M40.445,12h-6.891c0.693-1.189,1.969-2,3.445-2S39.752,10.81,40.445,12z M4.111,10.994c2.385-0.266,6.921-0.744,12.278-1.305 L10.039,12H4c-0.474,0-0.922,0.098-1.343,0.248C2.972,11.599,3.432,11.07,4.111,10.994z M58,60c0,1.105-0.895,2-2,2H4 c-1.104,0-2-0.895-2-2V16c0-1.104,0.896-2,2-2h52c1.105,0,2,0.896,2,2v16H42c-1.105,0-2,0.895-2,2v8c0,1.105,0.895,2,2,2h16V60z M62,41c0,0.553-0.447,1-1,1H43c-0.553,0-1-0.447-1-1v-6c0-0.553,0.447-1,1-1h18c0.553,0,1,0.447,1,1V41z"/> <circle fill="#394240" cx="46" cy="38" r="2"/> <path fill="#394240" d="M53,20h2c0.553,0,1-0.447,1-1s-0.447-1-1-1h-2c-0.553,0-1,0.447-1,1S52.447,20,53,20z"/> <path fill="#394240" d="M47,20h2c0.553,0,1-0.447,1-1s-0.447-1-1-1h-2c-0.553,0-1,0.447-1,1S46.447,20,47,20z"/> <path fill="#394240" d="M41,20h2c0.553,0,1-0.447,1-1s-0.447-1-1-1h-2c-0.553,0-1,0.447-1,1S40.447,20,41,20z"/> <path fill="#394240" d="M37,18h-2c-0.553,0-1,0.447-1,1s0.447,1,1,1h2c0.553,0,1-0.447,1-1S37.553,18,37,18z"/> <path fill="#394240" d="M31,18h-2c-0.553,0-1,0.447-1,1s0.447,1,1,1h2c0.553,0,1-0.447,1-1S31.553,18,31,18z"/> <path fill="#394240" d="M25,18h-2c-0.553,0-1,0.447-1,1s0.447,1,1,1h2c0.553,0,1-0.447,1-1S25.553,18,25,18z"/> <path fill="#394240" d="M19,18h-2c-0.552,0-1,0.447-1,1s0.447,1,1,1h2c0.553,0,1-0.447,1-1S19.553,18,19,18z"/> <path fill="#394240" d="M13,18h-2c-0.553,0-1,0.447-1,1s0.447,1,1,1h2c0.553,0,1-0.447,1-1S13.553,18,13,18z"/> <path fill="#394240" d="M7,18H5c-0.553,0-1,0.447-1,1s0.447,1,1,1h2c0.553,0,1-0.447,1-1S7.553,18,7,18z"/> <path fill="#394240" d="M53,58h2c0.553,0,1-0.447,1-1s-0.447-1-1-1h-2c-0.553,0-1,0.447-1,1S52.447,58,53,58z"/> <path fill="#394240" d="M47,58h2c0.553,0,1-0.447,1-1s-0.447-1-1-1h-2c-0.553,0-1,0.447-1,1S46.447,58,47,58z"/> <path fill="#394240" d="M40,57c0,0.553,0.447,1,1,1h2c0.553,0,1-0.447,1-1s-0.447-1-1-1h-2C40.447,56,40,56.447,40,57z"/> <path fill="#394240" d="M37,56h-2c-0.553,0-1,0.447-1,1s0.447,1,1,1h2c0.553,0,1-0.447,1-1S37.553,56,37,56z"/> <path fill="#394240" d="M31,56h-2c-0.553,0-1,0.447-1,1s0.447,1,1,1h2c0.553,0,1-0.447,1-1S31.553,56,31,56z"/> <path fill="#394240" d="M25,56h-2c-0.553,0-1,0.447-1,1s0.447,1,1,1h2c0.553,0,1-0.447,1-1S25.553,56,25,56z"/> <path fill="#394240" d="M19,56h-2c-0.552,0-1,0.447-1,1s0.447,1,1,1h2c0.553,0,1-0.447,1-1S19.553,56,19,56z"/> <path fill="#394240" d="M13,56h-2c-0.553,0-1,0.447-1,1s0.447,1,1,1h2c0.553,0,1-0.447,1-1S13.553,56,13,56z"/> <path fill="#394240" d="M7,56H5c-0.553,0-1,0.447-1,1s0.447,1,1,1h2c0.553,0,1-0.447,1-1S7.553,56,7,56z"/> </g> </g> </g>
</svg>