<?xml version="1.0" encoding="UTF-8" standalone="no"?>
<!-- Created with Inkscape (http://www.inkscape.org/) -->

<svg
   xmlns:dc="http://purl.org/dc/elements/1.1/"
   xmlns:cc="http://creativecommons.org/ns#"
   xmlns:rdf="http://www.w3.org/1999/02/22-rdf-syntax-ns#"
   xmlns:svg="http://www.w3.org/2000/svg"
   xmlns="http://www.w3.org/2000/svg"
   xmlns:sodipodi="http://sodipodi.sourceforge.net/DTD/sodipodi-0.dtd"
   xmlns:inkscape="http://www.inkscape.org/namespaces/inkscape"
   version="1.1"
   id="svg815"
   xml:space="preserve"
   width="52.185478"
   height="52.686985"
   viewBox="0 0 52.185479 52.686987"
   sodipodi:docname="Shield.svg"
   inkscape:version="0.92.3 (2405546, 2018-03-11)"
   inkscape:export-filename="C:\Projects\simpleidserver.com\images\Shield logo.png"
   inkscape:export-xdpi="96"
   inkscape:export-ydpi="96"><metadata
     id="metadata821"><rdf:RDF><cc:Work
         rdf:about=""><dc:format>image/svg+xml</dc:format><dc:type
           rdf:resource="http://purl.org/dc/dcmitype/StillImage" /><dc:title /></cc:Work></rdf:RDF></metadata><defs
     id="defs819" /><sodipodi:namedview
     pagecolor="#ffffff"
     bordercolor="#666666"
     borderopacity="1"
     objecttolerance="10"
     gridtolerance="10"
     guidetolerance="10"
     inkscape:pageopacity="0"
     inkscape:pageshadow="2"
     inkscape:window-width="2100"
     inkscape:window-height="1234"
     id="namedview817"
     showgrid="false"
     inkscape:zoom="4.7588559"
     inkscape:cx="44.875608"
     inkscape:cy="7.5011885"
     inkscape:window-x="2391"
     inkscape:window-y="-9"
     inkscape:window-maximized="1"
     inkscape:current-layer="g823" /><g
     id="g823"
     inkscape:groupmode="layer"
     inkscape:label="SimpleIdServer logo"
     transform="matrix(1.3333333,0,0,-1.3333333,-37.783661,187.4468)"><path
       d="m 35.441365,139.2461 h 2.746007 9.719975 9.720011 2.74586 l 0.314142,-2.6304 c 0.245307,-2.05438 1.00967,-3.29082 3.111348,-3.82907 l 2.284535,-0.5851 0.005,-2.27932 c 0.02647,-12.00078 -5.694297,-21.26267 -16.790797,-26.67393 l -1.390101,-0.67797 -1.390175,0.67797 c -11.096511,5.41126 -16.817269,14.67315 -16.79082,26.67393 l 0.005,2.27932 2.284644,0.5851 c 2.101567,0.53825 2.865931,1.77469 3.111238,3.82907 z m -1.237826,1.339 -0.455718,-3.81624 c -0.175146,-1.46655 -0.543846,-2.29255 -2.088362,-2.68808 l -3.31442,-0.849 -0.0072,-3.30677 c -0.0273,-12.48112 5.964292,-22.22043 17.552663,-27.87164 l 2.016834,-0.98351 2.016761,0.98351 c 11.58837,5.65121 17.579963,15.39052 17.552666,27.87164 l -0.0072,3.30677 -3.314421,0.849 c -1.544552,0.39553 -1.913253,1.22153 -2.088398,2.68808 l -0.455572,3.81624 H 57.62736 47.907348 38.187373 Z"
       style="fill:#00b0dc;fill-opacity:1;fill-rule:evenodd;stroke:none;stroke-width:0.36223179"
       id="path825"
       inkscape:connector-curvature="0" /></g></svg>